<mxfile host="app.diagrams.net" modified="2022-11-11T12:40:59.770Z" agent="5.0 (Macintosh; Intel Mac OS X 10_15_7) AppleWebKit/537.36 (KHTML, like Gecko) Chrome/105.0.0.0 Safari/537.36" etag="V9yVlfybw479wu9bbnh4" version="20.5.3" type="github">
  <diagram id="C5RBs43oDa-KdzZeNtuy" name="Page-1">
    <mxGraphModel dx="946" dy="614" grid="1" gridSize="10" guides="1" tooltips="1" connect="1" arrows="1" fold="1" page="1" pageScale="1" pageWidth="827" pageHeight="1169" math="1" shadow="0">
      <root>
        <mxCell id="WIyWlLk6GJQsqaUBKTNV-0" />
        <mxCell id="WIyWlLk6GJQsqaUBKTNV-1" parent="WIyWlLk6GJQsqaUBKTNV-0" />
        <mxCell id="WIyWlLk6GJQsqaUBKTNV-2" value="" style="rounded=0;html=1;jettySize=auto;orthogonalLoop=1;fontSize=11;endArrow=block;endFill=0;endSize=8;strokeWidth=1;shadow=0;labelBackgroundColor=none;edgeStyle=orthogonalEdgeStyle;" parent="WIyWlLk6GJQsqaUBKTNV-1" source="WIyWlLk6GJQsqaUBKTNV-3" target="WIyWlLk6GJQsqaUBKTNV-6" edge="1">
          <mxGeometry relative="1" as="geometry" />
        </mxCell>
        <mxCell id="WIyWlLk6GJQsqaUBKTNV-3" value="Lamp doesn&#39;t work" style="rounded=1;whiteSpace=wrap;html=1;fontSize=12;glass=0;strokeWidth=1;shadow=0;" parent="WIyWlLk6GJQsqaUBKTNV-1" vertex="1">
          <mxGeometry x="160" y="80" width="120" height="40" as="geometry" />
        </mxCell>
        <mxCell id="WIyWlLk6GJQsqaUBKTNV-4" value="Yes" style="rounded=0;html=1;jettySize=auto;orthogonalLoop=1;fontSize=11;endArrow=block;endFill=0;endSize=8;strokeWidth=1;shadow=0;labelBackgroundColor=none;edgeStyle=orthogonalEdgeStyle;" parent="WIyWlLk6GJQsqaUBKTNV-1" source="WIyWlLk6GJQsqaUBKTNV-6" target="WIyWlLk6GJQsqaUBKTNV-10" edge="1">
          <mxGeometry y="20" relative="1" as="geometry">
            <mxPoint as="offset" />
          </mxGeometry>
        </mxCell>
        <mxCell id="WIyWlLk6GJQsqaUBKTNV-5" value="No" style="edgeStyle=orthogonalEdgeStyle;rounded=0;html=1;jettySize=auto;orthogonalLoop=1;fontSize=11;endArrow=block;endFill=0;endSize=8;strokeWidth=1;shadow=0;labelBackgroundColor=none;" parent="WIyWlLk6GJQsqaUBKTNV-1" source="WIyWlLk6GJQsqaUBKTNV-6" target="WIyWlLk6GJQsqaUBKTNV-7" edge="1">
          <mxGeometry y="10" relative="1" as="geometry">
            <mxPoint as="offset" />
          </mxGeometry>
        </mxCell>
        <mxCell id="WIyWlLk6GJQsqaUBKTNV-6" value="Lamp&lt;br&gt;plugged in?" style="rhombus;whiteSpace=wrap;html=1;shadow=0;fontFamily=Helvetica;fontSize=12;align=center;strokeWidth=1;spacing=6;spacingTop=-4;" parent="WIyWlLk6GJQsqaUBKTNV-1" vertex="1">
          <mxGeometry x="170" y="170" width="100" height="80" as="geometry" />
        </mxCell>
        <mxCell id="WIyWlLk6GJQsqaUBKTNV-7" value="Plug in lamp" style="rounded=1;whiteSpace=wrap;html=1;fontSize=12;glass=0;strokeWidth=1;shadow=0;" parent="WIyWlLk6GJQsqaUBKTNV-1" vertex="1">
          <mxGeometry x="320" y="190" width="120" height="40" as="geometry" />
        </mxCell>
        <mxCell id="WIyWlLk6GJQsqaUBKTNV-8" value="No" style="rounded=0;html=1;jettySize=auto;orthogonalLoop=1;fontSize=11;endArrow=block;endFill=0;endSize=8;strokeWidth=1;shadow=0;labelBackgroundColor=none;edgeStyle=orthogonalEdgeStyle;" parent="WIyWlLk6GJQsqaUBKTNV-1" source="WIyWlLk6GJQsqaUBKTNV-10" target="WIyWlLk6GJQsqaUBKTNV-11" edge="1">
          <mxGeometry x="0.3333" y="20" relative="1" as="geometry">
            <mxPoint as="offset" />
          </mxGeometry>
        </mxCell>
        <mxCell id="WIyWlLk6GJQsqaUBKTNV-9" value="Yes" style="edgeStyle=orthogonalEdgeStyle;rounded=0;html=1;jettySize=auto;orthogonalLoop=1;fontSize=11;endArrow=block;endFill=0;endSize=8;strokeWidth=1;shadow=0;labelBackgroundColor=none;" parent="WIyWlLk6GJQsqaUBKTNV-1" source="WIyWlLk6GJQsqaUBKTNV-10" target="WIyWlLk6GJQsqaUBKTNV-12" edge="1">
          <mxGeometry y="10" relative="1" as="geometry">
            <mxPoint as="offset" />
          </mxGeometry>
        </mxCell>
        <mxCell id="WIyWlLk6GJQsqaUBKTNV-10" value="Bulb&lt;br&gt;burned out?" style="rhombus;whiteSpace=wrap;html=1;shadow=0;fontFamily=Helvetica;fontSize=12;align=center;strokeWidth=1;spacing=6;spacingTop=-4;" parent="WIyWlLk6GJQsqaUBKTNV-1" vertex="1">
          <mxGeometry x="170" y="290" width="100" height="80" as="geometry" />
        </mxCell>
        <mxCell id="WIyWlLk6GJQsqaUBKTNV-11" value="Repair Lamp" style="rounded=1;whiteSpace=wrap;html=1;fontSize=12;glass=0;strokeWidth=1;shadow=0;" parent="WIyWlLk6GJQsqaUBKTNV-1" vertex="1">
          <mxGeometry x="160" y="430" width="120" height="40" as="geometry" />
        </mxCell>
        <mxCell id="WIyWlLk6GJQsqaUBKTNV-12" value="Replace Bulb" style="rounded=1;whiteSpace=wrap;html=1;fontSize=12;glass=0;strokeWidth=1;shadow=0;" parent="WIyWlLk6GJQsqaUBKTNV-1" vertex="1">
          <mxGeometry x="320" y="310" width="120" height="40" as="geometry" />
        </mxCell>
        <mxCell id="vF7-Rn5coSUuFvJn1IR7-0" value="" style="shape=image;imageAspect=0;aspect=fixed;verticalLabelPosition=bottom;verticalAlign=top;image=data:image/jpeg,/9j/4AAQSkZJRgABAQAAkACQAAD/4QB0RXhpZgAATU0AKgAAAAgABAEaAAUAAAABAAAAPgEbAAUAAAABAAAARgEoAAMAAAABAAIAAIdpAAQAAAABAAAATgAAAAAAAACQAAAAAQAAAJAAAAABAAKgAgAEAAAAAQAAA0ygAwAEAAAAAQAAAgYAAAAA/+0AOFBob3Rvc2hvcCAzLjAAOEJJTQQEAAAAAAAAOEJJTQQlAAAAAAAQ1B2M2Y8AsgTpgAmY7PhCfv/iEAhJQ0NfUFJPRklMRQABAQAAD/hhcHBsAhAAAG1udHJSR0IgWFlaIAfmAAYAFAAPAB8AFGFjc3BBUFBMAAAAAEFQUEwAAAAAAAAAAAAAAAAAAAAAAAD21gABAAAAANMtYXBwbAAAAAAAAAAAAAAAAAAAAAAAAAAAAAAAAAAAAAAAAAAAAAAAAAAAAAAAAAAAAAAAEmRlc2MAAAFcAAAAYmRzY20AAAHAAAAEnGNwcnQAAAZcAAAAI3d0cHQAAAaAAAAAFHJYWVoAAAaUAAAAFGdYWVoAAAaoAAAAFGJYWVoAAAa8AAAAFHJUUkMAAAbQAAAIDGFhcmcAAA7cAAAAIHZjZ3QAAA78AAAAMG5kaW4AAA8sAAAAPmNoYWQAAA9sAAAALG1tb2QAAA+YAAAAKHZjZ3AAAA/AAAAAOGJUUkMAAAbQAAAIDGdUUkMAAAbQAAAIDGFhYmcAAA7cAAAAIGFhZ2cAAA7cAAAAIGRlc2MAAAAAAAAACERpc3BsYXkAAAAAAAAAAAAAAAAAAAAAAAAAAAAAAAAAAAAAAAAAAAAAAAAAAAAAAAAAAAAAAAAAAAAAAAAAAAAAAAAAAAAAAAAAAAAAAAAAAAAAAAAAAABtbHVjAAAAAAAAACYAAAAMaHJIUgAAABQAAAHYa29LUgAAAAwAAAHsbmJOTwAAABIAAAH4aWQAAAAAABIAAAIKaHVIVQAAABQAAAIcY3NDWgAAABYAAAIwZGFESwAAABwAAAJGbmxOTAAAABYAAAJiZmlGSQAAABAAAAJ4aXRJVAAAABgAAAKIZXNFUwAAABYAAAKgcm9STwAAABIAAAK2ZnJDQQAAABYAAALIYXIAAAAAABQAAALedWtVQQAAABwAAALyaGVJTAAAABYAAAMOemhUVwAAAAoAAAMkdmlWTgAAAA4AAAMuc2tTSwAAABYAAAM8emhDTgAAAAoAAAMkcnVSVQAAACQAAANSZW5HQgAAABQAAAN2ZnJGUgAAABYAAAOKbXMAAAAAABIAAAOgaGlJTgAAABIAAAOydGhUSAAAAAwAAAPEY2FFUwAAABgAAAPQZW5BVQAAABQAAAN2ZXNYTAAAABIAAAK2ZGVERQAAABAAAAPoZW5VUwAAABIAAAP4cHRCUgAAABgAAAQKcGxQTAAAABIAAAQiZWxHUgAAACIAAAQ0c3ZTRQAAABAAAARWdHJUUgAAABQAAARmcHRQVAAAABYAAAR6amFKUAAAAAwAAASQAEwAQwBEACAAdQAgAGIAbwBqAGnO7LfsACAATABDAEQARgBhAHIAZwBlAC0ATABDAEQATABDAEQAIABXAGEAcgBuAGEAUwB6AO0AbgBlAHMAIABMAEMARABCAGEAcgBlAHYAbgD9ACAATABDAEQATABDAEQALQBmAGEAcgB2AGUAcwBrAOYAcgBtAEsAbABlAHUAcgBlAG4ALQBMAEMARABWAOQAcgBpAC0ATABDAEQATABDAEQAIABhACAAYwBvAGwAbwByAGkATABDAEQAIABhACAAYwBvAGwAbwByAEwAQwBEACAAYwBvAGwAbwByAEEAQwBMACAAYwBvAHUAbABlAHUAciAPAEwAQwBEACAGRQZEBkgGRgYpBBoEPgQ7BEwEPgRABD4EMgQ4BDkAIABMAEMARCAPAEwAQwBEACAF5gXRBeIF1QXgBdlfaYJyAEwAQwBEAEwAQwBEACAATQDgAHUARgBhAHIAZQBiAG4A/QAgAEwAQwBEBCYEMgQ1BEIEPQQ+BDkAIAQWBBoALQQ0BDgEQQQ/BDsENQQ5AEMAbwBsAG8AdQByACAATABDAEQATABDAEQAIABjAG8AdQBsAGUAdQByAFcAYQByAG4AYQAgAEwAQwBECTAJAgkXCUAJKAAgAEwAQwBEAEwAQwBEACAOKg41AEwAQwBEACAAZQBuACAAYwBvAGwAbwByAEYAYQByAGIALQBMAEMARABDAG8AbABvAHIAIABMAEMARABMAEMARAAgAEMAbwBsAG8AcgBpAGQAbwBLAG8AbABvAHIAIABMAEMARAOIA7MDxwPBA8kDvAO3ACADvwO4A8wDvQO3ACAATABDAEQARgDkAHIAZwAtAEwAQwBEAFIAZQBuAGsAbABpACAATABDAEQATABDAEQAIABhACAAQwBvAHIAZQBzMKsw6TD8AEwAQwBEdGV4dAAAAABDb3B5cmlnaHQgQXBwbGUgSW5jLiwgMjAyMgAAWFlaIAAAAAAAAPMWAAEAAAABFspYWVogAAAAAAAAgo0AAD00////vFhZWiAAAAAAAABMDwAAtFQAAArjWFlaIAAAAAAAACg6AAAOeAAAyI5jdXJ2AAAAAAAABAAAAAAFAAoADwAUABkAHgAjACgALQAyADYAOwBAAEUASgBPAFQAWQBeAGMAaABtAHIAdwB8AIEAhgCLAJAAlQCaAJ8AowCoAK0AsgC3ALwAwQDGAMsA0ADVANsA4ADlAOsA8AD2APsBAQEHAQ0BEwEZAR8BJQErATIBOAE+AUUBTAFSAVkBYAFnAW4BdQF8AYMBiwGSAZoBoQGpAbEBuQHBAckB0QHZAeEB6QHyAfoCAwIMAhQCHQImAi8COAJBAksCVAJdAmcCcQJ6AoQCjgKYAqICrAK2AsECywLVAuAC6wL1AwADCwMWAyEDLQM4A0MDTwNaA2YDcgN+A4oDlgOiA64DugPHA9MD4APsA/kEBgQTBCAELQQ7BEgEVQRjBHEEfgSMBJoEqAS2BMQE0wThBPAE/gUNBRwFKwU6BUkFWAVnBXcFhgWWBaYFtQXFBdUF5QX2BgYGFgYnBjcGSAZZBmoGewaMBp0GrwbABtEG4wb1BwcHGQcrBz0HTwdhB3QHhgeZB6wHvwfSB+UH+AgLCB8IMghGCFoIbgiCCJYIqgi+CNII5wj7CRAJJQk6CU8JZAl5CY8JpAm6Cc8J5Qn7ChEKJwo9ClQKagqBCpgKrgrFCtwK8wsLCyILOQtRC2kLgAuYC7ALyAvhC/kMEgwqDEMMXAx1DI4MpwzADNkM8w0NDSYNQA1aDXQNjg2pDcMN3g34DhMOLg5JDmQOfw6bDrYO0g7uDwkPJQ9BD14Peg+WD7MPzw/sEAkQJhBDEGEQfhCbELkQ1xD1ERMRMRFPEW0RjBGqEckR6BIHEiYSRRJkEoQSoxLDEuMTAxMjE0MTYxODE6QTxRPlFAYUJxRJFGoUixStFM4U8BUSFTQVVhV4FZsVvRXgFgMWJhZJFmwWjxayFtYW+hcdF0EXZReJF64X0hf3GBsYQBhlGIoYrxjVGPoZIBlFGWsZkRm3Gd0aBBoqGlEadxqeGsUa7BsUGzsbYxuKG7Ib2hwCHCocUhx7HKMczBz1HR4dRx1wHZkdwx3sHhYeQB5qHpQevh7pHxMfPh9pH5Qfvx/qIBUgQSBsIJggxCDwIRwhSCF1IaEhziH7IiciVSKCIq8i3SMKIzgjZiOUI8Ij8CQfJE0kfCSrJNolCSU4JWgllyXHJfcmJyZXJocmtyboJxgnSSd6J6sn3CgNKD8ocSiiKNQpBik4KWspnSnQKgIqNSpoKpsqzysCKzYraSudK9EsBSw5LG4soizXLQwtQS12Last4S4WLkwugi63Lu4vJC9aL5Evxy/+MDUwbDCkMNsxEjFKMYIxujHyMioyYzKbMtQzDTNGM38zuDPxNCs0ZTSeNNg1EzVNNYc1wjX9Njc2cjauNuk3JDdgN5w31zgUOFA4jDjIOQU5Qjl/Obw5+To2OnQ6sjrvOy07azuqO+g8JzxlPKQ84z0iPWE9oT3gPiA+YD6gPuA/IT9hP6I/4kAjQGRApkDnQSlBakGsQe5CMEJyQrVC90M6Q31DwEQDREdEikTORRJFVUWaRd5GIkZnRqtG8Ec1R3tHwEgFSEtIkUjXSR1JY0mpSfBKN0p9SsRLDEtTS5pL4kwqTHJMuk0CTUpNk03cTiVObk63TwBPSU+TT91QJ1BxULtRBlFQUZtR5lIxUnxSx1MTU19TqlP2VEJUj1TbVShVdVXCVg9WXFapVvdXRFeSV+BYL1h9WMtZGllpWbhaB1pWWqZa9VtFW5Vb5Vw1XIZc1l0nXXhdyV4aXmxevV8PX2Ffs2AFYFdgqmD8YU9homH1YklinGLwY0Njl2PrZEBklGTpZT1lkmXnZj1mkmboZz1nk2fpaD9olmjsaUNpmmnxakhqn2r3a09rp2v/bFdsr20IbWBtuW4SbmtuxG8eb3hv0XArcIZw4HE6cZVx8HJLcqZzAXNdc7h0FHRwdMx1KHWFdeF2Pnabdvh3VnezeBF4bnjMeSp5iXnnekZ6pXsEe2N7wnwhfIF84X1BfaF+AX5ifsJ/I3+Ef+WAR4CogQqBa4HNgjCCkoL0g1eDuoQdhICE44VHhauGDoZyhteHO4efiASIaYjOiTOJmYn+imSKyoswi5aL/IxjjMqNMY2Yjf+OZo7OjzaPnpAGkG6Q1pE/kaiSEZJ6kuOTTZO2lCCUipT0lV+VyZY0lp+XCpd1l+CYTJi4mSSZkJn8mmia1ZtCm6+cHJyJnPedZJ3SnkCerp8dn4uf+qBpoNihR6G2oiailqMGo3aj5qRWpMelOKWpphqmi6b9p26n4KhSqMSpN6mpqhyqj6sCq3Wr6axcrNCtRK24ri2uoa8Wr4uwALB1sOqxYLHWskuywrM4s660JbSctRO1irYBtnm28Ldot+C4WbjRuUq5wro7urW7LrunvCG8m70VvY++Cr6Evv+/er/1wHDA7MFnwePCX8Lbw1jD1MRRxM7FS8XIxkbGw8dBx7/IPci8yTrJuco4yrfLNsu2zDXMtc01zbXONs62zzfPuNA50LrRPNG+0j/SwdNE08bUSdTL1U7V0dZV1tjXXNfg2GTY6Nls2fHadtr724DcBdyK3RDdlt4c3qLfKd+v4DbgveFE4cziU+Lb42Pj6+Rz5PzlhOYN5pbnH+ep6DLovOlG6dDqW+rl63Dr++yG7RHtnO4o7rTvQO/M8Fjw5fFy8f/yjPMZ86f0NPTC9VD13vZt9vv3ivgZ+Kj5OPnH+lf65/t3/Af8mP0p/br+S/7c/23//3BhcmEAAAAAAAMAAAACZmYAAPKnAAANWQAAE9AAAApbdmNndAAAAAAAAAABAAEAAAAAAAAAAQAAAAEAAAAAAAAAAQAAAAEAAAAAAAAAAQAAbmRpbgAAAAAAAAA2AACuAAAAUgAAAEPAAACwwAAAJsAAAA2AAABQAAAAVEAAAjMzAAIzMwACMzMAAAAAAAAAAHNmMzIAAAAAAAEMcgAABfj///MdAAAHugAA/XL///ud///9pAAAA9kAAMBxbW1vZAAAAAAAAAYQAACgPQAAAADVGGSAAAAAAAAAAAAAAAAAAAAAAHZjZ3AAAAAAAAMAAAACZmYAAwAAAAJmZgADAAAAAmZmAAAAAjMzNAAAAAACMzM0AAAAAAIzMzQA/8AAEQgCBgNMAwEiAAIRAQMRAf/EAB8AAAEFAQEBAQEBAAAAAAAAAAABAgMEBQYHCAkKC//EALUQAAIBAwMCBAMFBQQEAAABfQECAwAEEQUSITFBBhNRYQcicRQygZGhCCNCscEVUtHwJDNicoIJChYXGBkaJSYnKCkqNDU2Nzg5OkNERUZHSElKU1RVVldYWVpjZGVmZ2hpanN0dXZ3eHl6g4SFhoeIiYqSk5SVlpeYmZqio6Slpqeoqaqys7S1tre4ubrCw8TFxsfIycrS09TV1tfY2drh4uPk5ebn6Onq8fLz9PX29/j5+v/EAB8BAAMBAQEBAQEBAQEAAAAAAAABAgMEBQYHCAkKC//EALURAAIBAgQEAwQHBQQEAAECdwABAgMRBAUhMQYSQVEHYXETIjKBCBRCkaGxwQkjM1LwFWJy0QoWJDThJfEXGBkaJicoKSo1Njc4OTpDREVGR0hJSlNUVVZXWFlaY2RlZmdoaWpzdHV2d3h5eoKDhIWGh4iJipKTlJWWl5iZmqKjpKWmp6ipqrKztLW2t7i5usLDxMXGx8jJytLT1NXW19jZ2uLj5OXm5+jp6vLz9PX29/j5+v/bAEMAAgICAgICAwICAwUDAwMFBgUFBQUGCAYGBgYGCAoICAgICAgKCgoKCgoKCgwMDAwMDA4ODg4ODw8PDw8PDw8PD//bAEMBAgICBAQEBwQEBxALCQsQEBAQEBAQEBAQEBAQEBAQEBAQEBAQEBAQEBAQEBAQEBAQEBAQEBAQEBAQEBAQEBAQEP/dAAQANf/aAAwDAQACEQMRAD8A/fyiiigAooooAKKKKACiiigAooooAKKKKACiiigAooooAKKKKACiiigAooooAKKKKACiiigAooooAKKKKACiiigAooooAKKKKACiiigAooooAKKKKACiiigAooooAKKKKACiiigAooooAKKKKACiiigAooooAKKKKACiiigAooooAKKKKACiiigAooooAKKKKACiiigAooooAKKKKACiiigAooooAKKKKACiiigAooooAKKKKACiiigAooooAKKKKACiiigAooooAKKKKACiiigAooooA//Q/fyiiigAooooAKKKKACiiigAooooAKKKKACiiigAooooAKKKKACiiigAooooAKKKKACiiigAooooAKKKKACiiigAooooAKKKKACiiigAooooAKKKKACiiigAooooAKKKKACiiigAooooAKKKKACiiigAooooAKKKKACiiigAooooAKKKKACiiigAooooAKKKKACiiigAooooAKKKKACiiigAooooAKKKKACiiigAooooAKKKKACiiigAooooAKKKKACiiigAooooAKKKKACiiigAooooA//R/fyiiigAooooAKKKKACiiigAooooAKKKKACiiigAooooAKKKKACiiigAooooAKKKKACiiigAooooAKKKKACiiigAooooAKKKKACiiigAooooAKKKKACiiigAooooAKKKKACiiigAooooAKKKKACiiigAooooAKKKKACiiigAooooAKKKKACiiigAooooAKKKKACiiigAooooAKKKKACiiigAooooAKKKKACiiigAooooAKKKKACiiigAooooAKKKKACiiigAooooAKKKKACiiigAooooA//S/fyiiigAooooAKKKKACiiigAooooAKKKKACiiigAooooAKKKKACiiigAooooAqTXLJzEnmgHacdQf8PWm2t1LO0iywmLyzgk9GPXKnuPf1rL1GKVldmJK/vPm/hQEDAK9WB74Ir8HJfDv/BTf41h/iV8GPHhh8P6pcXaR2NreRafFZ/ZrmS3EapMXZtwj3k56saAP6BMijIr+fT/AIUV/wAFkv8Aoebj/wAHdp/hR/wor/gsl/0PNx/4O7T/AAoA/oLyKMiv59P+FFf8Fkv+h5uP/B3af4Uf8KK/4LJf9Dzcf+Du0/woA/oLyKMiv59P+FFf8Fkv+h5uP/B3af4Uf8KK/wCCyX/Q83H/AIO7T/CgD+gvIoyK/n0/4UV/wWS/6Hm4/wDB3af4Uf8ACiv+CyX/AEPNx/4O7T/CgD+gvIoyK/n0/wCFFf8ABZL/AKHm4/8AB3af4Uf8KK/4LJf9Dzcf+Du0/wAKAP6C8ijIr+fT/hRX/BZL/oebj/wd2n+FH/Civ+CyX/Q83H/g7tP8KAP6BWkcNhVyOec09XLEgjBFfz0ap8M/+Ct3gaxn8a674ve40/Qk+23SPqtvIjJb5kfei4LjaOcEZr9tfgH4u1/x58KfDni3xLJFLqGoWoeZoUMcZfJBwpLHt1zQB7LRRRQAUUUUAFFFFABRRRQAUUUUAFFFFABRRRQAUUUUAFFFFABRRRQAUUUUAFFFFABRRRQAUUUmQOvegBaKazqilnIUDuaNy4zkYoAdRRkUZFABRSZGcZ5pNy5xnmgB1FICDyKY0saZ3MBgZ5PagCSikyPXrTRJGwJDAge9AD6KbuUgEHg9KdQAUUUUAFFFFABRRRQAUUUUAFFFFABRRRQAUUUUAFFFFABRRRQAUUUUAFFFFABRRRQAUUUUAFFFFAH/0/38ooooAKKKKACiiigAooooAKKKKACiiigAooooAKKKKACiiigAooooAKKKKAM/UP8Aj0uP+uZ/ka+Qf2DP+TfNP/7CGq/+l9xX19qH/Hpcf9cz/I18g/sGf8m+af8A9hDVf/S+4oA+zqKKKACiiigAooqk88hby0BJDYJUZwPfNAF2iqU1w6gPCQy9D6/h70xbmQhyQ4OBhSozx170AaFFFFABRRRQB5L8d/8Aki3j7/sBah/6TvXI/sn/APJvfgz/AK9D/wCjGrrvjv8A8kW8ff8AYC1D/wBJ3rkf2T/+Te/Bn/Xof/RjUAfRFFFFABRRRQAUUUUAFFFFABRRRQAUUUUAFFFFABRRRQAUUUUAFFFFABRRRQAUUUUAFFFFABUcg+6cZwfypxOASOa+cP2ovj3Yfs8/Ci/8bXEQutTmK22m2ueZ7qQ4VR64GWx7UAfQDqW3wqxUuM7+D+n/ANaqwkaFx5xKqhCs/BDsegwOn5V+XXh74a/E9Pg5qn7SfxW8bapp/jv7E+oW9tHdzQafZowDxI9ojiFzjhspxivTv2FF+IPjXwz4g+O3xHv7uSfxvdtJaWUtxI1tBboBsaKInYm4k/dA6UAfoPE27d8xJB6EdKkdlRSzHAHpzVPzZceVDzJH13dCT2z14r4t+LfxG8W+NPi5b/AHwjr8PhuxWya81rU9ypMkeU2wQlsFXbfkMCDhTzQB9tNIUUMRvB9OtQkAqExvUgnB4b6CviSL9lv4JXDltR+IPii6uT/rJU8XX8KEn0RLnav4V9V+AfC+ieDPClj4e8NXtxqdjYofKnvryS+nZSSSWuJWd3+pY+lAH53/APBQHxt+0B8LP+Ea+IXw28Y3+h+D2nS01e2soLaSWFHJBn3XETjAwB179K9f8KfBr4keNPDlh4n8NftHeKJtL1SFJ7d0tNIkBSQZwT9jPTIr1/8AaS1b4fQ/CzWNC+IMX2611yB7e3s1AkuJp3+4IlPXB+bORwK4D9hz4V+Pfgz8CdM8G+OL0XZjkaW0QD54beTlEk6cqMAjnFAHIaXJ8ev2e7Lxj4n+JOuat8V9Js47YabBDFaR3aF3YSsixRxZKrgncCPSqb/tI3MXxOHiObVJ5PBUnhkXi6T9lb7YdS+0bfL8lY/ODY4JYbO4OMV9d/FLw/4z8TeE9Q0j4faunh7W50VYr5oll2gk5GGHp09K+EZfgjfv8ZV8Dxm/GpL4c85/FHnSCQ6r5+cE7smPZ/ATt9qAPuf4VeN5fiR4VsPG0+gXXh2W+GPs18QJwo6EqpIGeuOtesV5t8LdB8YeHvBmn6R8QdYTxBrdsNst4sSxb8cDhRjOO9ek0AFFFFABRRRQAUUUUAFFFFABRRRQAUUUUAFFFFABRRRQAUUUUAFFFFABRRRQAUUUUAFFFFABRRRQB//U/fyiiigAooooAKKKKAGsyoNzHAHc1GJ4m3bGDleoHJp0z7I2fbuxzivhv4jf8FBP2WfhR4qv/B/jfxRc2upWx2yRDT7mVFI64eOMg/nQB9z7hRuFfnJH/wAFVP2LI41RvGFyCB20u9x/6Lp//D1f9ir/AKHG6/8ABXef/G6Bn6MbhRuFfnP/AMPV/wBir/ocbr/wV3n/AMbo/wCHq/7FX/Q43X/grvP/AI3QB+jG4UbhX5z/APD1f9ir/ocbr/wV3n/xuj/h6v8AsVf9Djdf+Cu8/wDjdAH6MbhRuFfnP/w9X/Yq/wChxuv/AAV3n/xuj/h6v+xV/wBDjdf+Cu8/+N0AfoxuFG4V+c//AA9X/Yq/6HG6/wDBXef/ABuj/h6v+xV/0ON1/wCCu8/+N0AfoxuFRmZA6x9WbsK/Ov8A4er/ALFX/Q43X/grvP8A43Ve5/4KnfsXzx/L40vIQSMOmmXecjnGDEaAP0GsfEehalf3Ol6dfRXN3Z/66KNgzx9PvAdOta5ljVgpOGPQd6/j1/ar/aPXxX+1F4h+KvwX8S3kGkXP2drSZPNgyUgSNi0TgdWB/hr1r4Of8FVv2hvh28Nh4rlh8YacMKwvlImCj/nmyFAPxBoEf1Q37qbadf4mQ4XuePSvkX9hAGL4A6fBJ8sn2/VW2nqB9vuO1fOHwZ/4KlfBv4rlfDOtaPqGh6xcoFCJDJeqztx1t0baPqa+h/2B5EuP2etJu49+ya71NlD8fKb+cg46j8aAPtWiiigAo6UU12CqSaAGiVdzqcjYAST0596+FvG/7XV5rXxKvPgf+z9paeL/ABZaKHu7rftsbBSSMSOAwZxtJ25U9PWu1/bS+K158Gf2dfFnjTSZNmqeQ1rZHr/pMykrwOeNprwL/gmV8LLfwx+z/ZfEq+xc6746dr+a5fiR4XxgZPPB3UAe4Xej/thaZYnVofFeg6tMkTSNpqaSYGaTaSIxP57c5xzs/Cqv7KXxj+Jvxj0zxLrPxN0KLw4dKv8A+zkg+/vlti8c53ELx5icccivVPi38evh58DNJbxF8R7i407T0YETRWk90ig/LljCrYz05pPgl8Rfhv8AEPQ5NV+GUVwdJu5XvRPLbSW6TNOxdmHmqucls0Ae+UUUUAFFFFAHkfx3Yf8ACmPH6jkjQdQP/kvJXI/snsf+Ge/Bm5Sp+yHgjH/LRq6T4/zBfgl49Mn7tBouoBmALnaLd88LzX52fAf/AIKQ/si/D34V+H/CfiPxTPbalpsBhlRNOvHAIcnqEIoA/XjcKNwr85/+Hq/7FX/Q43X/AIK7z/43R/w9X/Yq/wChxuv/AAV3n/xugZ+jG4UbhX5z/wDD1f8AYq/6HG6/8Fd5/wDG6P8Ah6v+xV/0ON1/4K7z/wCN0AfoxuFG4V+c/wDw9X/Yq/6HG6/8Fd5/8bo/4er/ALFX/Q43X/grvP8A43QB+jG4UbhX5z/8PV/2Kv8Aocbr/wAFd5/8bo/4er/sVf8AQ43X/grvP/jdAH6MbhRuFfnP/wAPV/2Kv+hxuv8AwV3n/wAbo/4er/sVf9Djdf8AgrvP/jdAH6MbhRuFfnP/AMPV/wBir/ocbr/wV3n/AMbo/wCHq/7FX/Q43X/grvP/AI3QB+jG4UbhX5z/APD1f9ir/ocbr/wV3n/xuj/h6v8AsVf9Djdf+Cu8/wDjdAH6MbhRuFfnP/w9X/Yq/wChxuv/AAV3n/xuj/h6v+xV/wBDjdf+Cu8/+N0AfoxuFG4V+c//AA9X/Yq/6HG6/wDBXef/ABuj/h6v+xV/0ON1/wCCu8/+N0AfoxuFG4V+c/8Aw9X/AGKv+hxuv/BXef8Axuj/AIer/sVf9Djdf+Cu8/8AjdAH6MbhRuFfnP8A8PV/2Kv+hxuv/BXef/G6P+Hq/wCxV/0ON1/4K7z/AON0AfoxuFG4V+c//D1f9ir/AKHG6/8ABXef/G6P+Hq/7FX/AEON1/4K7z/43QB+jG4UbhX5z/8AD1f9ir/ocbr/AMFd5/8AG6P+Hq/7FX/Q43X/AIK7z/43QB+iWGAbb1Jz+Ffmb/wUi8D6xrfhzwD4uS0lv9E8L+Ire/1IxgkW1ukbp5zDn5QzKDnHWug/4er/ALFX/Q43X/grvP8A43VO9/4Kj/sT6nAbaXxXNPGfvJJpF46ke48rH50COa/aA+Jg/a10zT/gd8A7tdY0HxAFfxBrVp89rbWWPmj8xSV8xs8oSMbTXrn7HHxO/wCEh8Gj4TQ6HdabL4DsYbO4uJoyiNOGcEREj5gAAcg9687sv+CmP7DWkAxaT4kezjB3MIdHuY9/t8sIFWLH/gp3+w3pk0z2HiaW2Eh3SlNJvFLt7nyuaAP0akiZ4hliCqgh8cg461+Z/wC0R8H/AIeaV+0FafGj4reBrXxt4M1vTVtdRmktPtD6fcQCNIpWHPyFFbJ4wSK6Qf8ABVD9jCUBY/GFwrHJydMvNv0P7r0qhcf8FR/2KbyB4LvxbcPv+UodKuyjY/3oiKAMVYf+CUslqvnQ+A7WQ9YZWt45UPo6lsgjvXv/AIi+N/7Pv7P/AMDYPGnhe6sF8EW9uTpMWmOhgmXccRQ7cjaZM5I6Enivn4/8FG/+CfbuHm1KJWHLf8SGZifqfIq0f+Cl/wCwk9mum3Wsk2Cf6qJtHneJOc8IIeOeaAPmPwF/wUK/Zc1PxS/xR+K2paveeI8sumWw01pYNLgB5WNt/wAzEDlgF6niveX/AOCknw2+M3iDSvhd+z8L6XxJ4suVs4rq5tmt1sFY4M7DJ34yPlyv1rVb/gov/wAE+MpK97A8qD5WGg3AHPb/AFFW7X/gpD+wXBJ9o0zV47e4jwUkh0SeF0PsxhFAH6Y2iTx20Cz/ADSBFEh7bgOSPqafslO7zdrgjpjHOfWvzxH/AAVW/YrAwfGN1kf9Qu8/+N0v/D1f9ir/AKHG6/8ABXef/G6B2P0TjyoUABRjkD1qXcK/Of8A4er/ALFX/Q43X/grvP8A43R/w9X/AGKv+hxuv/BXef8AxugD9GNwo3Cvzn/4er/sVf8AQ43X/grvP/jdH/D1f9ir/ocbr/wV3n/xugD9GNwo3Cvzn/4er/sVf9Djdf8AgrvP/jdH/D1f9ir/AKHG6/8ABXef/G6AP0Y3CjcK/Of/AIer/sVf9Djdf+Cu8/8AjdH/AA9X/Yq/6HG6/wDBXef/ABugD9GNwo3Cvzn/AOHq/wCxV/0ON1/4K7z/AON0f8PV/wBir/ocbr/wV3n/AMboA/RjcKNwr85/+Hq/7FX/AEON1/4K7z/43R/w9X/Yq/6HG6/8Fd5/8boA/RjcKM+1fnP/AMPV/wBir/ocbr/wV3n/AMbr2T4L/tm/s/8A7RWvXPhz4Wa7LqV9aQmZw9tNbEAEDAEqrnr1FAH1krq2cdjjmn1WjkJMYPBdcnPWrNAgooooAKKKKACiiigAooooAKKKKACiiigAooooA//V/fyiiigAooooAKKKKAGsAVIPINfnr+zH4D8DeL/GXxgufFvh3Ttbmg8RSpG99aQ3LInmTfKplViBwOBX6FnpXxB+yD/yNfxl/wCxkl/9GT0AfSX/AApL4M/9CFoH/gqtP/jdH/Ckvgz/ANCFoH/gqtP/AI3Xp1FAHmP/AApL4M/9CFoH/gqtP/jdH/Ckvgz/ANCFoH/gqtP/AI3Xp1FAHmP/AApL4M/9CFoH/gqtP/jdH/Ckvgz/ANCFoH/gqtP/AI3Xp1FAHmP/AApL4M/9CFoH/gqtP/jdH/Ckvgz/ANCFoH/gqtP/AI3Xp1FAHmP/AApL4M/9CFoH/gqtP/jdH/Ckvgz/ANCFoH/gqtP/AI3Xp1FAHmP/AApL4M/9CFoH/gqtP/jdQSfBP4LozSN4C0Ecdf7Ltcfl5deq1E6OWDI+31GM5oA/nW/aM/4J0/Fr41/tQ+KdW8DaJZeFPCd2bYW0uxYrZQkEYYrHEDjLA9F619D/AAk/4I4fC3w81vqXxS8QXPiC5jwZLWL93b+4DLsfFftCsOzJVmyfU5pREBkn7x7gYNAHgXgj9nf4N/CfQ2sfAXhCxs/Kj2pM0KSTAAcfvXBckepNeafsHrt/Z+0xc523uqD6f6fccV9dX8YFnOpLECM9/rXyF+wWG/4Z+sMtlf7Q1XAx0/0+470AfaFFFFABUcoYxkL1qSkYEjAOKAPlj9sH4M3Hxv8AgJ4i8Cae2y9kH2q2I6+dGG24/wC+q8A/Yc+Mvh7T/g5o/wAFfHMqeHvFvgyH+zri3vwbZXRCT5kbkBCDk9D2r9JNp3Fs/T2rzXxf8Hfhp8QLkXnjjw1p2uzKuxWvLWObEf8AdG8H1NAH5n/8FIPHa+OPDPhj4G/D7/ifXfiLU7aK9WzPmJDZlx+8Mi8Y3D1r9N/hf4Ms/AHw78O+CbWMRJpFlb2pCjGTDGEJOO5IqLwv8H/hp4I/5FDw1p2k4Xav2e2jjIGcgZUDgHnFejRxlfmc7mOMnGOQOtAEtFFFABRRRQB5J8dgB8F/H2Bj/iRaj/6TvXh/7L3wi+E+q/AfwhqGp+C9EvLqe1LSSzabbSSOfMblmaMkn617j8d/+SLePv8AsBah/wCk71yP7J//ACb34M/69D/6MagDuv8AhSXwZ/6ELQP/AAVWn/xuj/hSXwZ/6ELQP/BVaf8AxuvTqKAPMf8AhSXwZ/6ELQP/AAVWn/xuj/hSXwZ/6ELQP/BVaf8AxuvTqKAPMf8AhSXwZ/6ELQP/AAVWn/xuj/hSXwZ/6ELQP/BVaf8AxuvTqKAPMf8AhSXwZ/6ELQP/AAVWn/xuj/hSXwZ/6ELQP/BVaf8AxuvTqKAPMf8AhSXwZ/6ELQP/AAVWn/xuj/hSXwZ/6ELQP/BVaf8AxuvTqKAPMf8AhSXwZ/6ELQP/AAVWn/xuj/hSXwZ/6ELQP/BVaf8AxuvTqKAPMf8AhSXwZ/6ELQP/AAVWn/xuj/hSXwZ/6ELQP/BVaf8AxuvTqKAPMf8AhSXwZ/6ELQP/AAVWn/xuj/hSXwZ/6ELQP/BVaf8AxuvTqKAPMf8AhSXwZ/6ELQP/AAVWn/xuj/hSXwZ/6ELQP/BVaf8AxuvTqKAPMf8AhSXwZ/6ELQP/AAVWn/xuj/hSXwZ/6ELQP/BVaf8AxuvTqKAPMf8AhSXwZ/6ELQP/AAVWn/xuj/hSXwZ/6ELQP/BVaf8AxuvTqKAPMf8AhSXwZ/6ELQP/AAVWn/xuj/hSXwZ/6ELQP/BVaf8AxuvTqKAPMf8AhSXwZ/6ELQP/AAVWn/xuj/hSXwZ/6ELQP/BVaf8AxuvTqKAPMf8AhSXwZ/6ELQP/AAVWn/xulX4K/Btc7fAegDPppdr/APG69NooA8x/4Un8GuP+KC0Dj/qF2n/xuj/hSfwa/wChC0D/AMFdp/8AG69OooA8x/4Un8GcY/4QLQP/AAV2n/xuj/hSfwZ/6ELQP/BXaf8AxuvTqKAPMf8AhSfwZ/6ELQP/AAV2n/xuj/hSfwZ/6ELQP/BXaf8AxuvTqKAPMv8AhSnwaHTwFoHH/ULtf/jdJ/wpP4M/9CFoH/grtP8A43Xp1FAHmP8AwpL4M/8AQhaB/wCCq0/+N0f8KS+DP/QhaB/4KrT/AON16dRQB5j/AMKS+DP/AEIWgf8AgqtP/jdH/Ckvgz/0IWgf+Cq0/wDjdenUUAeY/wDCkvgz/wBCFoH/AIKrT/43R/wpL4M/9CFoH/gqtP8A43Xp1FAHmP8AwpL4M/8AQhaB/wCCq0/+N0f8KS+DP/QhaB/4KrT/AON16dRQB5j/AMKS+DP/AEIWgf8AgqtP/jdH/Ckvgz/0IWgf+Cq0/wDjdenUUAeY/wDCkvgz/wBCFoH/AIKrT/43R/wpL4M/9CFoH/gqtP8A43Xp1FAHmP8AwpL4M/8AQhaB/wCCq0/+N0f8KS+DP/QhaB/4KrT/AON16dRQB5j/AMKS+DP/AEIWgf8AgqtP/jdfK974Q8JeEP23/Ctt4T0Sx0SGfwjcPIljbRWyuwvcbmESqCccZNfe1fFfi/8A5Pl8If8AYn3H/pdQB9nkDeDjkEVLUZ+9+IqSgAooooAKKKKACiiigAooooAKKKKACiiigAooooA//9b9/KKKKACiiigAooooAQ9K+IP2Qf8Aka/jL/2Mkv8A6Mnr7fPSviD9kH/ka/jL/wBjJL/6MnoGfcFFFFAgooooAKKKKACiiigAooooAKKKKACiiigDN1J1W1nDEAlDjP0r5B/YMZf+GfNPGef7Q1X/ANL7ivrq9EcVtdTbCpCn5j83bqBzXyR+wkAPgHp53Mwa+1Q/MAMf6fcdhzQB9mZHrRketHHpRx6UAGR60ZHrRx6UcelABketGR60celHHpQAZHrRketHHpRx6UAGR60ZHrRx6UcelABketGR60celHHpQB5L8d/+SLePj2Ohah/6TvXJ/soAj9nzwYCMH7If/RjV0Xx92/8ACk/H4BADaHqI+bP3vs79K5T9k1mPwD8HKhXy0ssEfNuDeY397tQB9IUUUUAFFFFABRRRQAUUUUAFFFFABRRRQAUUUUAFFFFABRRRQAUUUUAFFFFABRRRQAUUUUAFFFFABRRRQAUUUUAFFFFABRRRQAUUUUAFFFFABRRRQAUUUUAFFFFABRRRQAUUUUAFfFfi/wD5Pl8If9ifcf8ApdX2pXxX4v8A+T5fCH/Yn3H/AKXUAfaB+9+IqSoz978RUlABRRRQAUUUUAFFFFABRRRQAUUUUAFFFFABRRRQB//X/fyiiigAooooAKKKKAEPSviD9kH/AJGv4y/9jJL/AOjJ6+3z0r4g/ZB/5Gv4y/8AYyS/+jJ6Bn3BRRRQIKKKKACiiigAooooAKKKKACiiigAooooApTEOGDH5fmVvbivysm/4Jt+JppjFoXx98UeG4d9xL9k05njgT7RO83AWdB/H6V+q80TyAofmVsg44IBpIITBuwS27B5OcYGMCgD8p/+HaXxE/6Oc8b/APf2T/5Jo/4dpfET/o5zxv8A9/ZP/kmv1hy3pRlvSgdz8nv+HaXxE/6Oc8b/APf2T/5Jo/4dpfET/o5zxv8A9/ZP/kmv1hy3pRlvSgLn5Pf8O0viJ/0c543/AO/sn/yTR/w7S+In/Rznjf8A7+yf/JNfrDlvSjLelAXPye/4dpfET/o5zxv/AN/ZP/kmj/h2l8RP+jnPG/8A39k/+Sa/WHLelGW9KAufk9/w7S+In/Rznjf/AL+yf/JNH/DtL4if9HOeN/8Av7J/8k1+sOW9KMt6UBc/J7/h2l8RP+jnPG//AH9k/wDkmj/h2l8RP+jnPG//AH9k/wDkmv1hy3pRlvSgLn5Mf8O0PGd0rW+qftGeMdSsyWSa3uHcxyowwynNweCOK/Sz4ceC7L4deEtN8F6dLJcW+mQrGssgwXx3PJ5rt3Xfwy5HpSRxurEnAXGAAOn40CJqKKKACiiigAooooAKKKKACiiigAooooAKKKKACiiigAooooAKKKKACiiigAooooAKKKKACiiigAooooAKKKKACiiigAooooAKKKKACiiigAooooAKKKKACiiigAooooAKKKKACvivxf8A8ny+EP8AsT7j/wBLq+1K+K/F/wDyfL4Q/wCxPuP/AEuoA+0D978RUlRn734ipKACiiigAooooAKKKKACiiigAooooAKKKKACiiigD//Q/fyiiigAooooAKKKKAEPSviD9kH/AJGv4y/9jJL/AOjJ6+3z0r4g/ZB/5Gv4y/8AYyS/+jJ6Bn3BRRRQIKKKKACiiigAooooAKKKKACiiigAooooAKKKKACiiigAooooAKKKKACiiigAooooAKKKKACiiigAooooAKKKKACiiigAooooAKKKKACiiigAooooAKKKKACiiigAooooAKKKKACiiigAooooAKKKKACiiigAooooAKKKKACiiigAooooAKKKKACiiigAooooAKKKKACiiigAooooAK+K/F//ACfL4Q/7E+4/9Lq+uNS1rTNJt5LvVLyGwgQ7RLPIsaZ+rECvhXxN428Jt+2z4Tvv7esPJTwjOhc3MZQsb3P3gxUcdiRQB+gR+9+IqSuZ0bWtD1iZm0PU7bUFiz5n2edZtrPyM7ScdDXTUAFFFFABRRRQAUUUUAFFFFABRRRQAUUUUAFFFFAH/9H9/KKKKACiiigAooooAQ9K+IP2Qf8Aka/jL/2Mkv8A6Mnr7fPSviD9kH/ka/jL/wBjJL/6MnoGfcFFFFAgooooAKKKKACiiigAooooAKKKKACiiigAooooAKKKKACiiigAooooAKKKKACiiigAooooAKKKKACiiigAooooAKKKKACiiigAooooAKKKKACiiigAooooAKKKKACiiigAooooAKKKKACiiigAooooAKKKKACiiigAooooAKKKKACiiigAooooAKKKKACiiigAooooAKKKKACiiigD82P+CoPw+1jx1+y5rNxocspn0GeK5aFST5kSurSEnsFUE9K/lAM00cknlbogFXeA2RtwOD9TX92fjPQLLxj4b1jwhfgSQa1ZXFoykZAEsbIWP51/Ff4y+FeraF8e9Q+E0lvKlw+r/YVjKEP5ckmEbb1xtIb6c0Af0Hf8Egfhfd+DvgTqfjG/QxS+LLxZY1KcrDb71XDdwwcGv11ryb4LeBbb4V/DLwx8PIMZ0Wwt7VyBjdJBGEd/+BEZr1mgAooooAKKKKACik3L6+9IHRsYIOelADqKKKACiiigAooooAKKKKAP/9L9/KKKKACiiigAooooAQ9K+IP2Qf8Aka/jL/2Mkv8A6Mnr7fPSviD9kH/ka/jL/wBjJL/6MnoGfcFFFFAgooooAKKKKACiiigAooooAKKKKACiiigAooooAKKKKACiiigAooooAKKKKACiiigAooooAKKKKACiiigAooooAKKKKACiiigAooooAKKKKACiiigAooooAKKKKACiiigAooooAKKKKACiiigAooooAKKKKACiiigAooooAKKKKACiiigAooooAKKKKACiiigDyX4s/Gz4YfBbSF1n4la5BpFq/K7yS5HTIRQWI+gr5kH/AAUn/YtYjHxFh2pzxZ3uQff9zis/9oTwv4a8Y/tZfCrw94s0m01jTr2xuVlgu4EnQhPOcfK4I6gV9Jxfs4fs/Ft3/Ct/DoHzAgaVagEZ7jy6APAf+Hlf7Fv/AEUeL/wDu/8A4zR/w8r/AGLf+ijxf+Ad3/8AGa+hv+Gbf2ev+iZ+G/8AwU2n/wAbo/4Zt/Z6/wCiZ+G//BTaf/G6APnn/h5X+xb/ANFHi/8AAO7/APjNH/Dyv9i3/oo8X/gHd/8Axmvob/hm39nr/omfhv8A8FNp/wDG6P8Ahm39nr/omfhv/wAFNp/8boA+bx/wUs/YsEzyf8LFizsAH+h3fv8A9Ma/Mnxh8S/2P9e/bm8PfH+08d283hq2hN5flrS6+a6VDbouPJzwCG9OK/cQ/s2fs8khv+FZ+G+P+oTaf/G6D+zZ+z5t2D4beHQvcDS7UZ+v7ugD5z/4eTfsX+b5zfEaLMRMZH2O77nr/qfarH/Dyv8AYt/6KPF/4B3f/wAZr6CX9mn9nhduPhp4c+UY50q1/X93Un/DNv7PX/RM/Df/AIKbT/43QB88/wDDyv8AYt/6KPF/4B3f/wAZo/4eV/sW/wDRR4v/AADu/wD4zX0N/wAM2/s9f9Ez8N/+Cm0/+N0f8M2/s9f9Ez8N/wDgptP/AI3QB88/8PK/2Lf+ijxf+Ad3/wDGar/8PK/2LIiZh8Ro5DJxt+x3f/xmvo7/AIZt/Z6/6Jn4b/8ABTaf/G6ryfs3fs9qwkX4aeHARgf8gm1xyf8ArnQBU+Dv7SvwW+Pwvf8AhUvieHXH03BuEEcsTIDjtKiEjkcivcC4R1wu7LBRjsGr4D+G/gnwf4H/AG5PEOi+DdFs9DsF8GmUwWUEdvE0hvoPmZYwoLYOMkZxX6BxoqyOR3C/pQBNRRRQAUUUUAFFFFABRRRQB//T/fyiiigAooooAKKKKAEPSviD9kH/AJGv4y/9jJL/AOjJ6+3z0r4g/ZB/5Gv4y/8AYyS/+jJ6Bn3BRRRQIKKKKACiiigAooooAKKKKACiiigAooooAKKKKACiiigAooooAKKKKACiiigAooooAKKKKACiiigAooooAKKKKACiiigAooooAKKKKACiiigAooooAKKKKACiiigAooooAKKKKACiiigAooooAKKKKACiiigAooooAKKKKACiiigAooooAKKKKACiiigAooooA+F/jB/yeZ8IP+vO7/8AQZ6+34P6t/OviD4wf8nmfCD/AK87v/0Gevt+D+rfzoAs0UUUAFFFFADC4Bxg01pUQ4bgYznt+dfH3j79tf8AZ/8Ahj43h8AeNtTvrDW7wqIYU0y8l85pm8tQu2JskkcYrptB/ar+DuveJY/C66rcaRqNwo8mPWLOfTlkIOMJ9pSPcT7ZoA+nt652g5NOqik0MnlshxubjHcev0q9QAUUUUAFV5fuj6r/ADqxVeX7o+q/zoA+JtA/5P38R/8AYkj/ANLrevt1fvt+FfEWgf8AJ+/iP/sSR/6XW9fbq/fb8KAJKKKKACiiigAooooAKKKKAP/U/fyiiigAooooAKKKKAEPSviD9kH/AJGv4y/9jJL/AOjJ6+3z0r4g/ZB/5Gv4y/8AYyS/+jJ6Bn3BRRRQIKKKKACiiigAooooAKKKKACiiigAooooAKKKKACiiigAooooAKKKKACiiigAooooAKKKKACiiigAooooAKKKKACiiigAooooAKKKKACiiigAooooAKKKKACiiigAooooAKKKKACiiigAooooAKKKKACiiigAooooAKKKKACiiigAooooAKKKKACiiigAooooA+F/jB/yeZ8IP+vO7/8AQZ6+34P6t/OviD4wf8nmfCD/AK87v/0Gevt+D+rfzoAs0UUUAFFNdxGpdugrlPFPi3T/AAr4Z1LxTqJAsdNt3nkZTkhVGTQB+PWoR6f8ef8AgqEsN9HHPpvw2sjDMBkn7REJJYGxjbnew5zWr/wVOv8AR/Ec3ws8HeF/LuvG412G6jitwGultwHU7mXoobqCfwrjf2Afgk3xrm+Ifx08XavrGiyeI9Xkhjm067kspZ0h2sh8xDkjnGK/TzwX+zH8IvAPiF/FtjpcureIOg1LU5Ptl2pPYSuNwHvmgD1zwZb6pZ+FdHj1sq2pRW0QnJ6g7RuHHfNdTu+YJKw87qACQMV8w3nxf8SeJvjPcfCP4diJI9Ctln1vUpB5y200wDQwIpwGLLvPJGNvQ0fAD4p+KfiDrHjzw7r5S8fwfrMulx3yRBEn8rblgoJAxn1NAH1Un3R/SnUyMAIAOKfQAVXl+6Pqv86sVXl+6Pqv86APibQP+T9/Ef8A2JI/9Lrevt1fvt+FfEWgf8n7+I/+xJH/AKXW9fbq/fb8KAJKKKKACiiigAooooAKKKKAP//V/fyiiigAooooAKKKKAEPSviD9kH/AJGv4y/9jJL/AOjJ6+3z0r4g/ZB/5Gv4y/8AYyS/+jJ6Bn3BRRRQIKKKKACiiigAooooAKKKKACiiigAooooAKKKKACiiigAooooAKKKKACiiigAooooAKKKKACiiigAooooAKKKKACiiigAooooAKKKKACiiigAooooAKKKKACiiigAooooAKKKKACiiigAooooAKKKKACiiigAooooAKKKKACiiigAooooAKKKKACiiigAooooA+F/jB/yeZ8IP+vO7/8AQZ6+34P6t/OviD4wf8nmfCD/AK87v/0Gevt+D+rfzoAs0UUUAVLrOI8MyndxtGQeDw3tXzV+0f8ACr4ifGn4Zar8PPBWuWXhyPxBbva3s9zayTOFcYOzZImOvvX1BRQB8e/snfs/eLP2cfhza/DfXtXstdtrN/NSS2tZIGLuQCTukfPQV9aJC6gl8uz5HzHIAzV6igD5T0f4GeJPBnj3xz4t8G6vEkHjPyGuLeWJt0bwqyqY5NwHRz2Nen/DD4YaB8KPCFt4X8NCTykkeeaWX5pZpJMeYzkAZYgCvXaKAGIQUBXOPen0UUAFV5fuj6r/ADqxVeX7o+q/zoA+JtA/5P38R/8AYkj/ANLrevt1fvt+FfEWgf8AJ+/iP/sSR/6XW9fbq/fb8KAJKKKKACiiigAooooAKKKKAP/W/fyiiigAooooAKKKKAEPSviD9kH/AJGv4y/9jJL/AOjJ6+3z0r4g/ZB/5Gv4y/8AYyS/+jJ6Bn3BRRRQIKKKKACiiigAooooAKKKKACiiigAooooAKKKKACiiigAooooAKKKKACiiigAooooAKKKKACiiigAooooAKKKKACiiigAooooAKKKKACiiigAooooAKKKKACiiigAooooAKKKKACiiigAooooAKKKKACiiigAooooAKKKKACiiigAooooAKKKKACiiigAooooA+F/jB/yeZ8IP+vO7/8AQZ6+34P6t/OvzC/bH+N3gj4DftNfC3x54/N1HpGn2Nw80ltAZ2UOZoxwMd2FSR/8Fcv2OVP/ACEdZPU8aY/Q/wDAqAP1Cor8wv8Ah7v+xv8A9BLWf/BY/wD8VR/w93/Y3/6CWs/+Cx//AIqgD9PaK/ML/h7v+xv/ANBLWf8AwWP/APFUf8Pd/wBjf/oJaz/4LH/+KoA/T2ivzB/4e8fsbf8AQS1n/wAFcn/xVPj/AOCuf7HUufL1DWm2jJxpcn/xVAH6d0V+Yp/4K6fscBS39pazgED/AJBj9T/wKmf8Pd/2N/8AoJaz/wCCx/8A4qgD9PaK/ML/AIe7/sb/APQS1n/wWP8A/FUf8Pd/2N/+glrP/gsf/wCKoA/T2q8v3R9V/nX5lf8AD3f9jf8A6CWs/wDgsf8A+KqCT/grr+xwVGNS1nqP+YY/Y/71AHsegf8AJ+/iP/sSR/6XW9fbq/fb8K/L/wDZr+Ofgb9ov9rvxN8Sfhkbu50GPwoLJp7i3aHbP9rgfYQc4O0E1+n0bBjuHIYCgCaiiigAooooAKKKKACiiigD/9f9/KKKKACiiigAooooAQ9K+IP2Qf8Aka/jL/2Mkv8A6Mnr7fPSviD9kH/ka/jL/wBjJL/6MnoGfcFFFFAgooooAKKKKACiiigAooooAKKKKACiiigAooooAKKKKACiiigAooooAKKKKACiiigAooooAKKKKACiiigAooooAKKKKACiiigAooooAKKKKACiiigAooooAKKKKACiiigAooooAKKKKACiiigAooooAKKKKACiiigAooooAKKKKACiiigAooooAKKKKACiiigDndZ8P6FrdxEdYs4bsouAJoI5RjPq6nFZY8BeA9+7/hHdNw3A22cJH/oFdsQCMHmkCqowoAFAHH/8K/8AAn/Qu6b/AOAcP/xFH/Cv/An/AELum/8AgHD/APEV2OBRgUAcd/wr/wACf9C7pv8A4Bw//EUf8K/8Cf8AQu6b/wCAcP8A8RXY4FGBQBxa+AfAZH/Iu6d/4Bwf/EV8X+LfBnhB/wBtzwrpyaJaG1TwhPOYFggWJnF9tDMu3k4NffhwAcf3hXxXrAEv7eejKRkR+Cpv1v1oA+oU8DeBmKiXw5p0bPggCzhP5nbVr/hX/gT/AKF3Tf8AwDh/+Irp4AMn2LD9atYFAHHf8K/8Cf8AQu6b/wCAcP8A8RR/wr/wJ/0Lum/+AcP/AMRXVMT5hjx8pXJNZ1/qGn6abd767jtllby4/MbbvfqAM9TgGgDG/wCFf+BP+hd03/wDh/8AiKb/AMIB4FA2jw1pp9/scH/xNdZnjk4LdxyKmFAHPaf4e0LQyToun21h5nD+RCkRIHOPkAzWrC6uwYDY79j3VaubV9BUU0ZaM+WfLfGA2ASPzoAmormbzxFomlBJNX1S3tFmx5QnlSEsR1I3EZrEi+IPg55nP/CTWAQHjddW4U/T580Aeg0Vg6X4m8Pa3N5Oj6pa37hSxWCaOQgDjOFJOK3qACis65vbWzhZ7qdIkRSzM52qF9Sx6VFbOl1AkyOjxzDIZHJBHYgj1FAGtRVRQVKKJNqg9OufxNW6AP/Q/fyiiigAooooAKKKKAEPSviD9kH/AJGv4y/9jJL/AOjJ6+3z0r4g/ZB/5Gv4y/8AYyS/+jJ6Bn3BRRRQIKKKKACiiigAooooAKKKKACiiigAooooAKKTcMlc8ikV0cZUgg+lADqKKKACiiigAooooAKKKKACiiigAooooAKKQsACSeB1oyPWgBaKTI65pvmJkjcMqMnnoKAIriZ4gojTezEADOPr+QqOK8SdC8QyAxXnuQccUsskTSeQXw0ikAfzx74r44+Evx78V/EX4sfEjRxp0cPhDwNi0hm/jluggZiTnBHDDgcUAfZDXB3CNF3OQfpkds1KJcsFGDkZ618QfBr9o7xd498IfEH4meMdKTT/AA74VvZ4LEw/fmFkXEhbrwfl7V6J+y78SvH3xd+FFl8QPHenR2MuqTNJaLGCP9H3bVJBJPY0AfTSSGRvlHyAdff0qaokOXbqNvHtS+bF03jrjr39KAJKhklaNgNhYH05596lyPWuN8bXHiG30HUZfB3ktrgtpfsYnUvEZkUsquAVOD06igDq/PXAK4IOR1/iHaoVvopHVUI6kEE4YH6V+TX7On7QH7XH7RV74m8Op4i8JeGPEXha8ltLzTLvSLuR9sblfOXF2hK5A5HHNe/eMG/b28IWsOrafq/hHxREJlSe2ttIuraUR/xMpe7bP5UAfeincAcYzTXfZgBSc+nQfWqOltKNNtjdhY5jGpkVeAGIywGfQ15r8X/jD4K+Deg2eu+N55bayv7lLVJY4XlRHbnMrKCI0x/E2BQB6l9pAwGwC3Awc896f5y4U4OH6V8UL+03aeGfFPjy+8cXFhD4D8MQ6ddafeW2ZJLz+0ImlURkOwkOB0UV9WeEfFNh4x8O2nifRvN+yagqtGsqFGUH/ZIBFAHYA5zS1DCV+ZR1U4b61NQAUUm5c4yM0tABRSAg9DmloAKKKKACiiigAooooAKKKKACiiigAooooAKKKKACiiigAooooAKKKKACiiigAooooAKKKKACiiigCuOXZPo1fFjjz/284VP/AC7eCnb65v0/xr7ST759dv8AU18VWBaX9vW8bH+q8EnPsDfx9aAPthF2ZPuf1ryTx/8AHv4SfC+8hs/HvirT9DklBPl3U4jkPoFXvk1F8e/iba/B/wCD/in4kXiPMmhWUtyI4nCSORwAhIIzk+hr4h/Yz+Eyah8Npv2l/jpt1fxP4zSXUZbi8XctvprLlYih+6wG/J9+lAH3mfi74D/4SPS/B763ZjWddtvtthaiYGW4tef3iDuMqR+FfK/7S/g3xd8UfjT8MfBGlXMltpVjc/2veGJjlYoFaI7gMfxSCvnn9gDwbF4z+Ifjv42XDM+kabdTaV4ejlkErW9kG8x/LxyFMjyY+uK/WS3hJYFYwBg/OcM5Vueo6fSgCeDzIF2bcIHEaqTn5R/FUF1rljp1nNfalNHbwWw/eOz4RT6E/StE5KExkruGFyOhr80v2p/H2hn48eFPht4/stYvvCenWJ1S8tNIsbjUDdvKZI4lkjtkZwFeMGgD6dvv2yv2XtLvJNO1L4l6Jb3ULbXja6GVbOMfnXrfgv4jeCvifosms+A9Yt9asC7RCe1k3LlTg/MOmK+TNO/aO+AOj2SaTp/w98UwWVqBtjHhDUWUL2AJgJ6nPWvpn4W+NfDfj3wu+ueFtIvdFsZJ3Xyb6wl02fIJ3OYplVsH1xQB8Zf8FHP2e0+NPwcm8TeG7RJ/EXgxf7Rt2dA6yQR/PJGB/ESqYx71R/ZR+HH7IP7QXwf0bxfD8L/Df9rQRC31WF9PgMsNzF8jbvlzlsBvxr6o+MXxcXwUlp4c8MWia34v1d/s1jpq/vNhfC+bcBfuxDOSzYGAeeK5v9mX9nbQ/wBn3wvq8s04Oq+I7qTUtTfcBEkzfMwXsFUAd+1AGl8M/wBl74TfCD4iXXxB+HmkR6JLeWclq1pbRrHCEd0YkKuBnKjtX0gb0pt8yNssuQqjLcdeK8q8efF7w94RutE0OFhqGteJm26dbQ/MZI+plOM4iAwC5+XJAzyKwvh98Wrbxn4z8XfD65086XrHhWSH7REsgl3RXRcQMHAwM+W2aAPmr9oPxn8QtK1Txj4S8ZX+m3/gjXNLuYbW3t38vVbWdoXETCIA+Z8+M/MuOtT/AAG8b/FPxDrfhnwt4cvdK03wboel2ttdWs8gm1SeYRITI8ZUGPPPG5vXNezeOv2ddFvZPG3i/wAG6dFF428UadPapf3L+YsbzxNF8i5G0gHIPrU/w8/Zz8OaXP4V8Z+J7YHxboGmw2D3EJ2iQxoquzjkMSwyD6UAfTEYKsSq7VzjA/zxVmoGA8wNgqSe3f61PQB//9H9/KKKKACiiigAooooAQ9K+IP2Qf8Aka/jL/2Mkv8A6Mnr7fPSviD9kH/ka/jL/wBjJL/6MnoGfcFFFFAgooPSqTyzbA4whB5DdxQBdoqj9qzGXDDGcg9sDrT7eczKTkHPTbzx+lAFuik56dTUEk6RLmRgvNAFiis6W+2PEnA83Izng/T3qykrnlhhR1J4NAFiivin9q/9oP4zfs/+F5viF4P8Fad4o8MWEby3csl7LBPEijOfLWJgRjP8VcZ8J/2gP2uvjJ8ONB+JvhP4feEk0zxBA1xbrca5dpIIwSoLBbNgDlTxk0AfoTRXxt4A+Nnx+l+MVr8Mfi54F0vRLO9szcw6hpt/NdxPIGA8v95DFzjJ/CvsmgDKup47Z3JDKDtywGc7jj36V+UEH7X/AO3J46v9S1j4IfA7T/EHhKG6ntbW7ubsQvJ9nkaNjt+0J/Ep7V+sWorm2mYEgpG2MHHUV8h/sH/P+z7prN1W+1Vf/KhcHn3oA+Z/+Gi/+CoH/Ruej/8AgxH/AMl0f8NF/wDBUD/o3PR//BiP/kuv1lwPSjA9KAPya/4aL/4Kgf8ARuej/wDgxH/yXR/w0X/wVA/6Nz0f/wAGI/8Akuv1lwPSjA9KAPya/wCGi/8AgqB/0bno/wD4MR/8l0f8NF/8FQP+jc9H/wDBiP8A5Lr9ZcD0owPSgD8mv+Gi/wDgqB/0bno//gxH/wAl0f8ADRf/AAVA/wCjc9H/APBiP/kuv1lwPSjA9KAPya/4aL/4Kgf9G56P/wCDEf8AyXR/w0X/AMFQP+jc9H/8GI/+S6/WXA9KMD0oA/Jr/hov/gqB/wBG56P/AODEf/JdH/DRf/BUD/o3PR//AAYj/wCS6/WXA9KMD0oA/I2//ai/4KJ+HLaTXfGfwA0u00OxQzX0sF8rvHCozIcfaj0UE9K/Sf4X+Oo/iT4D0fxpFCbManbhzAedjAnIzz6etZPx6topPgr8QRyvmaBqIO04PNvJ6d65L9lZA37PfgpsHcLTGQM9HYc/hQBzn7Vf7Sdh+z14Cj1a1txfa9q0gt7CzHLyyNkZAHUA9a+dvFfiP9pL4FfCv/hoT4jeMRrL2iRvfeHvKgSziR8lwkqxrKzKOgMhrlf2srO1H7aXwK1fx6YofDFj9rZPMYtbmcOgTzQRtzjPBzWJ+3D4u1z40X0fwX+F0I1DRfDsLa1r8ycQSLZ/Otqm3KvI2GBU4HI5oA+x/wBkW/8Air4h+Een+Mvivqcmo6h4jmkvoY3jij+w2zHEcK7FUkHbnLZPzda9U8BfCXw94D0DWPD+kruGu3F7e3NwfvtJdyO+Cf8AYD4HsKw/2e/ip4D+LvgOO+8BGRtP0Yxae7FBHG0sUSM3lgE/KCcHpyDXvIhTJxkBjkgHigDwyD4LeFLH4N3nwjtpGtdLv7OS3mmT78jTAB5T/tHGTXsHhvQtM8M6DY6Bo0C21lYxLFFGvAVR/nNajWsDDayAqAV2npg9sVKiCNAi9B680Acd8Q/F2meBPBereLdXmEFtpkDSknPLDhU47uxCj3NfHmgaD+0T8aNBsfH2oeNp/hvZ6lGLi2stKt7eeZbWTDRmT7VFKPMKkE4PrXv37TXge/8AiR8D/FXg3TA32m+t1ZNpKkmCRZsBhyCdmAR3NfDXwP8AhZ8DPiN4P0sTeOPFuk6zp6R2+p2cninUYTb3Ma7ZIwDKBjcDtx2FAH2B4C+EXxQ8K+JINc8QfF7XPFlhCkqPp19aafDGzOAFbfbwI2V/3q+hJ4Y58RuxYjOR93JAyBkY/Svm74Z/An4Z+BPE8Ov+HvFuv6xeIskaw33iK71G3ZWABLQTSsu70OOK8a/aO/bC+HnhjxJB8KNL8aaZ4e1KcEajqF1KwOmwnIOxVVgZSOAMjAIOaAPKvFPw+1mw/wCCgGieOPgTKsy3lmqeL0iAEECIiLGhP3Sz4VmwS2c571+rMRYopm+aYLyF6Zr88fhl+1T+xN8K9EfS9C+JOmSyTEyXM7yM93eTHJaeV2XJyc7QWOAQBXq3w2/aSi+K3hfxl8TfB9tLqPg/TA0WnSxxqpuZbXd9oKkHOGymPSgD6V1XxNoGlTquo31vaSjYpWaTHMrbFHXueK8b+PGl/ETW/CdtpnwwtNPvLu9nVJ5tRjE0UUB5LpGwYEg4H3TxXxPPJd+I/wBlOPxRq7PrHjv4lXaeWWHmPZTTTCFWiB/1awgB8LgZya/TTwTpF5YeEtG07V2aW6tbG1hkkYneZIolVj7biCfxoA/MDR/hhr8nj3x54b8DXSal4v8ADaaXOP7QtgdLvpZInM8SRsmxBG/yphVwOlfp94K/t1fDOlp4ntIbTVfKHnwWvEUbEcge1dFbaJpVlLcXNrbJHPdNvkkCgO7DOMt1OM8elc14i8Z+H/A+lXuveK76DTNN0+LzJriVsbAMkhuPbjqaAOqKsSdh25HDj0z6HvWRqPiHQ9EAbW9TtbFF+891OkWR6jJAr4Zj+MHx7/aNv5bD4Faf/wAId4My0X/CQ6hCr3E2Opgt2DKUI+6+8HPaur0L9hj4dTyjUPidres+OtVkO6aS/vZ/srk8kC1MjxgZ6ADFAH0TJ8cvg5FdG0k8Z6QJOmPtkWfz3YrptK8XeFddydF1qyvweYxbXCSMR9AxrySP9kb9myOy+wj4d6Ky/wB82MBk/wC+9ma801r9hj4KTyS6h4Tk1XwfqETfuJtLvpraONuoIhidFYZ7GgD7QgZm+Y/KCOh6/pVmvzym139qH9mqaK48R7fil4Ei+Wa6jQRaraQ9fMMYBEoXod0nTnrX2L8M/ip4M+LvhqDxf4C1GPU9Mn43rwyOOqMvYjofegD0iiiigAooooAKKKKACiiigAooooAKKKKACiiigAooooAKKKKACiiigAooooAKKKKACiiigAooooAgQ5lJ/wBkfzr4r8POJf28/EGei+Bwv/lQhr7Tb92fl9h+tfEvhgB/27/FIX7qeDVH/k7Cf50Ae5ftE/C1/jL8GvFHw3t7lbK41ezaGKdwWVHOCCQATjj0r4htPC/7Tnjr4Q2P7PFz4Um8GRxQfYtU137RbvDdWmNp+xRpI8iFl3f6xF6j3r9RuXKqTgMuTjilW2iUhgPmHfv+dAH52fBD4I/Fv4G/GMeDfCsMQ+FLMb97hmBm81rUQeQRnODKvmnjqx57V+h9oyMrBDu2kgn39vpTjaxF/M5HG3AOB+Xr709IEjKlMjaMYzx9T70ATV8q/HP4VeK9e1/w/wDFP4X6hBYeKvC0hJS6z5N3ZvxLA+0EklS4jz0Y5yK+qqr/AGS3I2ugfpywyeDkdfQ0AfGtv8evjuZPs2p/AjXZ5Y2JZ7e+0wQOB0MYe6EnPB+YV2fiH4qfF4/B7UPGHhn4ZaiPF3mNFbaHeXNl5iHnEkkkc3l+Xx2fdyOOtfSsdnbxNvVfn5+Y8tz7057S3kBDoCG+9x976+tAH4i+A/Fv/BRTwVqt/r83wGsNZ1zVnLSX19fReYIuoQeXcgIBk9AOtdpqvxL/AOCk/wAT7jTfC+sfCmy8G6JfXcUd7e2l1HK4ti4EvyvO55XI6V+w/wBmh3MxXO8YIPQj0xS+RH2+Xp046UAfDs3ww8WeFP2itN+IkNhJrOh6d4dbSLR2ZD9nmBh5C5B+YxkkgV6x8FvhVf8Ag3UvEvjXxXMs3iHxddtdXGz+CJSWjhzjpHubH1r6LWCNHZ1HLdR2/Km/Z4s7gMENuz7nr+FAEw6UtFFABRRRQB//0v38ooooAKKKKACiiigBD0r4g/ZB/wCRr+Mv/YyS/wDoyevt89K+IP2Qf+Rr+Mv/AGMkv/oyegZ9wUUUUCEPQ15Z8VNe8TeFvBGq614MsRqGuwQ7bKJvmV5WB2hsdBkcmvUmBKkDqRVGKJgiJNh8qA3GRuFAHw58HvjX8bdV8C+O7H4uabaaZ498KW11cW8duN9uyCEtCSM87nBHXnpXffsifFvxt8ZfhFp3jn4gwRW+pXcl1GPIjMaYguHixgk8/JXAfEtNQvPjX4q+Hfg+MvqXjTQLW3nmIwtrBJNMk0pPADCPPl56sMc9K+sPAfg/RvAHhbRvCejLstNMt1iAA6uPvyn3dsk/WgDqNa1ux0LTZdRvZlhhhjaRpHOFCqOeT39K+NtG8Z/tJ/HCA+JPhVPp/gTw3LIWs7nV7B72a7i7O1uJYGjJ9CTXtf7QnhfV/G/wZ8Y+EtKZorzVrCWOOSPqmCCCvuRXxj+zl8Mte8c/DfRYdE+PnivRLqxhWK50eH+zV+wyr1h2y2jSDH+0SaAPqTwd4J/am03Xbe48a/EPQNT0lWzLb2WgSWkrj2kN3IB/3ya+kDHKSYnOISDkHknn+92/Kvmnwt8CfiH4Y8Q2mr6h8ZfFfiC2hkLSWd3/AGaIHXHR/LtUfH+6wNfTCxSS5cyfKcgJjCnnqc85oA+OP2+vMi/ZL+I0rtv2abcLGw+Vk/dtznnd+lP/AOCf1pEP2OPhdJDuG7StxwcB286Tkj3qp/wUFvLW1/ZG+ICXUyxGSxmhiyfvOUYCr3/BPa9srn9jv4Z21pOsz2WnGGXac7ZBK7EH3wRQB9YnQbO5vra+vIUeW0cywMBgxsVKke/BNdFTB1p9AGfqH/Hpcf8AXM/yNfIP7Bn/ACb5p/8A2ENV/wDS+4r6+1D/AI9Lj/rmf5GvkH9gz/k3zT/+whqv/pfcUAfZ1FFFABRRRQAVE0qKM8kA4OO31qWvL/iH8UPAfwutE1vxtqa2KzyLBDEfmklckACONcu5ORwAaAPSxMjfd+YYzkdPzpouI2doxklcZ4/vDIr5gk/aw+DIaGS91G607zp47aBb2xubIyyzMEVUM8aBvvZ+WvpmI7nTZwqgc+vHFAF2iiigAooooA8l+O//ACRbx9/2AtQ/9J3rjP2VBIf2efBZj+8LQ/T/AFjV2fx3/wCSLePv+wFqH/pO9cj+yf8A8m9+DP8Ar0P/AKMagD0Hxj8NPCnj+zOk+L9HtdW09H8xYrhA/wAxzkg9utVPDXwj8B+D9DufC/hXQLTS9Iuck2sSAQbj1OzuT3Oea9SooA4rwP4A8K/DvRv7D8IaXb6TZs7StDap5ce9upC+9dmAc06igAooooAhuIhPEYzkZx046HNeMeNP2ePg18Rbv7X428H6fqzkl28+IMGfsx9+v517bRQB8+eEf2XvgP8AD3XYfEvgbwPp2i6tDlUvLWMRzIrdQG9D6Vg61+xt+zN4l1S61nxJ8NdE1O+v3LzzS2ylnc8byT1bHGa+oaKAPkb/AIYX/ZOEe1PhVoW4cZNspLDPAJ9PavdfCvwz8IeAvDY8HeCNGtNG0VC/l2tvFshQP94BB64Ga9EooA890D4b+E/DCwvoOkwWPkn5IkA8uLJ+YoO2a7iFZIwxmO4jgH1BOent0q1UUrhF3N93vQBV1LU7LSLGbUdQkENvbqWkdjgKoGSSewr85dC0jVP20vHcnifxVIU+DPh26KafpuwhtWuoyD587E4aEfLhdv8Ae+bnj039s3xFqWoeF9L+Cvhi4MOtfEm9j05WU4aO1wfOcHtg7R+NfTHgXwho/gPwlp3g/wAPQfZ9P0qFLWKJcZAAwXPc/U0AdPp9hZadBHa2MSWcMChI4xjCRoMBVHGAAKuwSqzkxtvGcEg7vz9Khumjtka6llMUUQ+diVC4HUkmuV0b4jfD7XdQ/snQvFGlale7ipgtb2CSYEdQURy2R6YoA7/Iqu/3jIh3FeMZ6VLXnurfFD4b6Lqp0LWPFWmabqIcJ9mlvYEmLHGAY2bcCfTFAHVSxbyzoUlRl2uDyefU9x2xXwF8W/A2v/szeLLn4/fCO0aPw1eSh/FOgwnMU6E5NzAijiYfMS2D941+hFu8dygmiYNHKAUIKlWHUEEUzUtNsdVsriw1GJbi2u1MckbDIIIwRQBk+EPGWg+OPDmn+KPDtwLqw1KJZYnXkbSO+K6hWDDIr8/v2XL2X4X/ABS8e/syXqSR2WkXJ1fQ3kbPm6bfExrCvr5JhZj6bua+/ICdpQ8lDjPrQBPSZ5xS1X+0xeZ5WfmoAsUUUUAFFFFABRRRQAUUUUAFFFFABRRRQAUUUUAFFFFABRRRQAUUUUAFFFFABRRRQBA4JKqep/pzXxF4KDf8N0eMt/UeFEX87qE19vP99T6Z/lXxJ4Abzv24fHUh/g8Nwr/5HgoA+21UqU3dhipqaOR+NOoAKKKKACiiigAooooAKKKKACiiigAooooAKKKKAP/T/fyiiigAooooAKKKKAI5SRGSCR9K+Bf2WvEXh3RfFfxdt9X1S2sdviKWRVuJ44ZCTJNngsCRzX34671Knv6818F/Ff8A4Jt/swfGXxpe+PfGGmX6atqBLTNZ3ht0dj1JVVPJ9aAPsRPH/gcoP+Kj05vf7XFz/wCPU/8A4T/wP/0MWm/+BcX/AMVX54D/AIJE/seAY+w63+GqOP8A2Wl/4dFfsd/8+Ot/+DR//iaAP0O/4T/wP/0MWm/+BcX/AMVXLeIvix4D8L+HdQ1+91yxkSwWS4McN1EzuE5wo3c59K+Gv+HRP7Hf/Pjrf/g0f/4mnJ/wSO/ZBRhts9a2gYC/2m+MHr/D3oA3v2LfH9v49sfE/wAb/iBrNlb6n4n1KVbKO4nhjkj06JVEUeN33Q+8gepzX3NH428CKcDxDpu5CSf9Li7/APAq/Plv+CRf7HzYzZ62Sowv/E0fgeg+Wmj/AIJE/sejn7HreT1/4mj8/wDjtAH6HHx54EK7D4g00r0x9rhxj/vqvnbx38Gf2a/Heoy61qGpw6fdXDmSZ9I1htMeVz1Z2tZoixPqa+fP+HRX7Hf/AD463/4NH/8Aiaaf+CRH7HbDDWOtn/uJv/8AE0Ae3+D/AIG/s+eBtctfE+geK9Re7tWLCO78U3d3EeMfPHNdOhH1FfSkfj/wK8jD/hItOZjjd/pcWFx6fNXwF/w6P/ZA6LY6wi4x8upOpP1O3mmj/gkb+x8sZhWx1oIxyR/ab5J+u2gD3j4y/BP9mn48SI/xH1f+0bdvvW8Ouy29u2e7RRzqh/Kk+C3wV/Zu/Z+vprj4ZayLC3kTYLWbXZbm1Qd2WGWdkBPqBXgn/Doj9jsnL2OtH2/tN8f+g08/8EjP2PmUqbHWQPRdSdR+Py0AfoKnjzwOxBXxFpxRSSD9ri6n/gVWP+E/8D/9DFpv/gXF/wDFV+eR/wCCRn7HzKqPZa0Qn3cam4x/47Sf8Oiv2O/+fHW//Bo//wATQB99al8QvA/2G6I8RaadiMTi6iz06fer5z/YOmim+AOn+SCqLe6njJUht19OwYEE8YNeB3v/AASP/ZDht5pILPWleNCyE6k5w3qfl5r2j/gnro9pon7OGk6dYgi2tbq/ghDcsscV5MgBbueM0AfcdFFFABRRTWbaM4J+lADq/Gv9vjX7/wCF37Svwx+LXjTTX1L4facyJOcF44Jw4JkKngFcgg98V+xUtykKySMRtjVmPPPy9a8O1XSvhz+038JEGsWi6n4Y8S2zsiyqMjOVDpnPzAjIPY0Acz4z8AfD79p7wT4b8Q2dxbahYw3NrqdnOiqwTynVgoOMg/Lg/l0r6Rt5MuIwPlO459MHAr8dv2J7Hxr8Bf2nfiD+y+t9Jq/hHR7dLvThISPIWZkYkDkDG4rj8fav2UUBT8uMdAPSgCWiiigAooooA8f+PTFvgr4+EfzY0PUQQOD/AMe79zXzv8Gfjt8I/hR+zr4OvfHviq00eMWbARSuGk3B2PSPcc/pX0T8e49/wV8fd/8AiRahww3Kf9HfqK/PrwT+wN+zx8efgT4Q13xPo8tjrMloxF3p7eQ27ewy4UfMPbNAHDfFv/gsD8MvDK3Vt8L9Fu/Es0ZKpNMEitD7hlfzf/Ha/O7XP+ClX7RnxZ8aaRpTarD4d0i6vYfOhswAVQsMgysqsBj3r3T4v/8ABHH4g6Ok978IPEFtr0TEssF6v2eRR1wJAZCT+Ffnbrf7Kvxi8A+L9M0f4meEb+x0+aeKGe4Ct5LqzYJEmBj8qAP7APDPxC8Gy6Bp8tx4i04u9vCSWvItxOwZLZbrmt3/AIT/AMD/APQxab/4Fxf/ABVfm14f/wCCTX7IWr6Fp+p3Nlq5mureKRzFqTqhZlBOAFrX/wCHRX7Hf/Pjrf8A4NH/APiaAP0O/wCE/wDA/wD0MWm/+BcX/wAVR/wn/gf/AKGLTf8AwLi/+Kr88f8Ah0V+x3/z463/AODR/wD4mj/h0V+x3/z463/4NH/+JoGfod/wn/gf/oYtN/8AAuL/AOKo/wCE/wDA/wD0MWm/+BcX/wAVX54/8Oiv2O/+fHW//Bo//wATR/w6K/Y7/wCfHW//AAaP/wDE0Afod/wn/gf/AKGLTf8AwLi/+Ko/4T/wP/0MWm/+BcX/AMVX54/8Oiv2O/8Anx1v/wAGj/8AxNH/AA6K/Y7/AOfHW/8AwaP/APE0Afod/wAJ/wCB/wDoYtN/8C4v/iqP+E/8D/8AQxab/wCBcX/xVfnj/wAOiv2O/wDnx1v/AMGj/wDxNH/Dor9jv/nx1v8A8Gj/APxNAH6Hf8J/4H/6GLTf/AuL/wCKqtdeO/A8keB4h01mHQG8iAPr0b0r8+v+HRX7Hf8Az463/wCDR/8A4mo5P+CR37HyDCWWtbm4GdUfnv8A3aBHa3mpaX8Rv26PDkNneRXum+CvD11NGInSVWuLp7Z1O5SeVCsM+9foWFXO4Dk96/Jz4Cfs/wDw1/Zk/bIuPAvgW0nt9N1nw7Pd2rXUxuJGMLwLP85A6O4GK/WMdKAK91b29zA9vcxiSKQFWRhlSD1BB4r8dvij+yX/AMJJ8Z/iT48+BVwvhzxh4YfTLmxith5EDym0DOrJGNp35Ocg5Jya/Yiaby5UTBxgknHy8Dua+UPhd4k0S7/aS+LNjZ3sM8zLpLLFG4Zzss0V+PZuKAPnf4W/th/EL4r+HJfhyuhTaR8YLRvsF/bSxgW+nyfda5kPKlAwJwA3TgV4b4B+Dfh7S/8AgojZ6D4rgXxHcxaE11PLeKJ1kuSJyZMSZ5GBg9sCv18tvBnhyz1nUPEEGm29vq2qBY7u7ijCyzRpnaJHHJ25OCemTX5gWHiPw/b/APBUJpPt8YCeH3hJZwEMuJwFz+IoA/Wm0hiijRIVWOONdqooAAAPGAOlXMCqtrvCqrDO4Ftw6cnpmrR6cUAfAXxw1LSfhl+1b8K/iDqV1HBaa7aatptzI+VCJbQoyngf9NTXO/GP/gpn+zP8K43ttK1mbxNqCZXydNQOVYHo3nFF69SCeK0/2pPDGnfEP4+/A3wdqsC3oE+r3E0LDcPLSKEvke4FZ3xY/wCCY37MfxMimutO0l/Dd+4Ijm0/EcYbOdzxrtDHPcmgD8wPiz/wWC+Mvir7Tpnww0e28NWoU7LlwJrjHTLo4ZQf901S/YF/bQGk/GbXfF37R/xEmtLC8tj5a3kk0lv5hz92JQyr+CirXxf/AOCP/wAZ/Cby3/wu1i18U2cWXInH2e6C/wB1EHmbj+IrS/4J4/sk6lY/GvWPDn7Q/wAOEuLBLIyIurWYmi3jP3TIMUAfr8P+ChP7GUI8qT4qaZuXrlLn/wCM0v8Aw8O/Yv8A+iqaZ/3xc/8Axmu3X9jb9lMjI+FPhw/TToP/AImnf8Ma/sqf9Eo8Of8Aguh/+JoA4b/h4d+xf/0VTTP++Ln/AOM0f8PDv2L/APoqmmf98XP/AMZruf8AhjX9lT/olHhz/wAF0P8A8TR/wxr+yp/0Sjw5/wCC6H/4mgDhv+Hh37F//RVNM/74uf8A4zR/w8O/Yv8A+iqaZ/3xc/8Axmu5/wCGNf2VP+iUeHP/AAXQ/wDxNH/DGv7Kn/RKPDn/AILof/iaAOG/4eHfsX/9FU0z/vi5/wDjNH/Dw79i/wD6Kppn/fFz/wDGa7n/AIY1/ZU/6JR4c/8ABdD/APE0f8Ma/sqf9Eo8Of8Aguh/+JoA4b/h4d+xf/0VTTP++Ln/AOM0f8PDv2L/APoqmmf98XP/AMZruf8AhjX9lT/olHhz/wAF0P8A8TR/wxr+yp/0Sjw5/wCC6H/4mgDhv+Hh37F//RVNM/74uf8A4zR/w8O/Yv8A+iqaZ/3xc/8Axmu5/wCGNf2VP+iUeHP/AAXQ/wDxNH/DGv7Kn/RKPDn/AILof/iaAOG/4eHfsX/9FU0z/vi5/wDjNH/Dw79i/wD6Kppn/fFz/wDGa7n/AIY1/ZU/6JR4c/8ABdD/APE0f8Ma/sqf9Eo8Of8Aguh/+JoA4b/h4d+xf/0VTTP++Ln/AOM0f8PDv2L/APoqmmf98XP/AMZruf8AhjX9lT/olHhz/wAF0P8A8TR/wxr+yp/0Sjw5/wCC6H/4mgDhv+Hh37F//RVNM/74uf8A4zR/w8O/Yv8A+iqaZ/3xc/8Axmu5/wCGNf2VP+iUeHP/AAXQ/wDxNH/DGv7Kn/RKPDn/AILof/iaAOG/4eHfsX/9FU0z/vi5/wDjNH/Dw79i/wD6Kppn/fFz/wDGa7n/AIY1/ZU/6JR4c/8ABdD/APE0f8Ma/sqf9Eo8Of8Aguh/+JoA4b/h4d+xf/0VTTP++Ln/AOM0f8PDv2L/APoqmmf98XP/AMZruf8AhjX9lT/olHhz/wAF0P8A8TR/wxr+yp/0Sjw5/wCC6H/4mgDhv+Hh37F//RVNM/74uf8A4zSf8PDv2L/+iqaZ/wB8XP8A8Zruv+GNf2VP+iUeHP8AwXQ//E0f8Ma/sqf9Eo8Of+C6H/4mgDz5/wDgoT+xp5kZf4q6YuzduHl3PORx/wAsa8z/AGcvid8Pvix+138Q/E/w71q31vTDoUCLNb+Zj/WwcHzFUg/QV9FN+xv+yvuC/wDCqvDhDZznToSenrtrwH4B+AvBnw6/a++JujeBtEtNE0230i2RbezhWFPma3bJCjGeaAP0TGAQF6VJTQoBGOgp1ABRRRQAUUUUAFFFFABRRRQAUUUUAFFFFABRRRQB/9T9/KKKKACiiigAooooAKKKKACiiigAooooAKKKKACiiigAooooAKKKKACiiigDP1D/AI9Lj/rmf5GvkH9gz/k3zT/+whqv/pfcV9fah/x6XH/XM/yNfIP7Bn/Jvmn/APYQ1X/0vuKAPs6iiigAprglSFODTqKAOI8ZaDqPiHw1q+gWFybG51G2aKG4UcxswwWr5L8Dfs9fHT4KeGIvBfwn8e2UujruMcet2ct40BfqsDQyQhFHbcG571910UAfK/wA/Zp0v4P6zr/jvWrx9d8aeK5BLqGoyegCqIo16rGNoIBJ5719QhWAUH+9U9FABRRRQAUUUUAeS/Hf/ki3j7/sBah/6TvXHfspKW/Z78F/MRi0PT/ro1dj8d/+SLePv+wFqH/pO9cj+yf/AMm9+DP+vQ/+jGoA99l837mRj/dJrJ1HTLXUY3S8tI51VQymVA43D0XrmuhooAq2iPHHsZVUDGNvAxj07VaoooAKKKKACiiigAooooAKKKKACoLhGeP92QHBBBPb/Iqeo5c+WcUAfBP7V1ufAPxE+Gv7RMe5LPwvfPpeobRjFlqDCSVnPZd0K8nivvG3u7e5himidWWZQy4OcjGeK4j4k+AdD+JvgvVfBniBBJZ6tEYyD2bHB/A18k/sz/E+88I6tffs2/FW5aHxb4VQQ2OoT5EWp2YyEljY8bxg7uhxjigD7g1C3hvkltZIftMc8ZikTOA0b/KwJ+hPHWvAPDX7KXwH8E+LYPGvhTwVZadrkEzTx3qGUuJGzkkFzzgkc8V9FWX+oA27cds5P4/XrVugDF1XS4dRtLixu1821ukMckbZKsp6j5SD+tfNlt+xl+zLb6wPEUXw/wBPi1ZHV/tSCYSbs56mQ19W0UAZ9jaR2EYs4FEVtAqpEg6BQAO9Xi6KGLMAF5PPT61HP9zB+6evsK+P/wBo/wCN1x4J0W28AfD9ft/xC8Sv5Gl2A+d1Q8NeS44EaZXgn+IcUAcP8N3m+LH7YPjD4ix5fR/AVv8A2HYyYzC1228XJRuhOxo849q+9QwjX5BlfUc814d8BvhRZfBX4c2HhIzm8uWf7Td3ZyWuL2fAkc/XaBXukDM0QZl2k54/GgCjLFNIhZlEp7DG0/meKIrVUcTRpl/usWAyB3wcDNalFAEcX+rHJP14qSiigAooooAKKKKACiiigAooooAKKKKACiiigAooooAKKKKACiiigAooooAKKKKAGE8Z7jNfDPwrPm/tk/FonqthZr/47bmvuZepPvXw18IMTftk/GRh/BbWI/8AINsaAPubcM7c806qnW6Q/wCy38xVugAooooAKKKKACiiigAooooAKKKKACiiigAooooA/9X9/KKKKACiiigAooooAKKKKACiiigAooooAKKKKACiiigAooooAKKKKACiiigDK1KQGzuVjJLhDnAzjivkD9g2ZG+AWnwoy5W+1QsASWB/tC46jFfY9xBJNFJE5yr8fL8pAPv3r8hfDnw+/wCCmnwh0WHwd8JdO8JS6HDNeyqL+VXlH2i7lmXLCRc/K4zx7UAfsLz60c+tfkr/AGh/wWE/6BHgT/vof/HaP7Q/4LCf9AjwJ/30P/jtAH61c+tHPrX5K/2h/wAFhP8AoEeBP++h/wDHaP7Q/wCCwn/QI8Cf99D/AOO0AfrVz60c+tfkr/aH/BYT/oEeBP8Avof/AB2j+0P+Cwn/AECPAn/fQ/8AjtAH61c+tHPrX5K/2h/wWE/6BHgT/vof/HaP7Q/4LCf9AjwJ/wB9D/47QB+tXPrRz61+Sv8AaH/BYT/oEeBP++h/8do/tD/gsJ/0CPAn/fQ/+O0AfrVz60c+tfkr/aH/AAWE/wCgR4E/76H/AMdo/tD/AILCf9AjwJ/30P8A47QB+hHx6lZPgn8QGIZQuh6kS2BjC2zmuZ/ZQBX4A+Dk3q6/Y8gj0Lsa+CNc0f8A4KzeNNHvvCPifTfBcWj6zBJaXZgcLIIZ1KPj96edpNfpX8EvBeqfDz4XeHvBussjXmmWwjlMZym7JOF9uaAPVqKKKACiiigAooooAKKKKACiiigAooooAKQqCQT2paKAGOitgt/DzXzn8dfgNofxp0m3khnk0rxJpjGfTNVgXa8LjBVHIILISBlScEdq+j6pG3kdg8jtlB0VsK31FAHwN4W/aU8a/BO7j8B/tQaSdNVTss/EVqvmWV3GvRp+FMb8EYAYYAOea+yfCvxC8MeMrCHUvDur2WoQ3OGjMMuQUI4PIByfpW3q+h6XrFjNp2uWcN3ZTqytHIoZSrDBU59fWvxS+DmgfAr4u/tWfEj4ceEHvvBw0llFkdFuBZEPbbYrhgSjZPm5wB1FAH7krJnBPQ9x0/OsXVfEui6JBLd6pfwWtvbgtK8kirsCjJJB9BXx/wD8MmeNARbWXxr8ZwWJHEf9pZOPrs/pVmz/AGF/hNeXUV98Qb7WPHkyfMy65eC6gZ+zGPYvPTvQBheO/wBrmXxleyeA/wBmbTn8YeIJW8s6gFK6Xac8s8pBJI6bdhB9a9C+B/7P3/CvtUuviL8QdRHibx/ryj7TqEqD/Rc8tb2inOyEHjC7Qdq5HAr6G0Xwb4e8L6NDofh7TobKxtlCx28KhIwB0AHoOtbgtZsAB9pzyfRfRfT60AWBaxAg4OAMAdh+FSxoI0CLnA9eafRQAUUUUAFFFFABRRRQAUUUUAFFFFABRRRQAUUUUAFFFFABRRRQAUUUUAFFFFABRRRQAUUUUANxg4HfrXwz8GR/xl/8aXj7CxU/T7NbmvuUMMkHqOa+GPgYw/4a1+Ogf70cunr+dnbH+VAH3GqAvv7j+vWp6hQ4Yg9wKmoAKKKKACiiigAooooAKKKKACiiigAooooAKKKKAP/W/fyiiigAooooAKKKKACiiigAooooAKKKKACiiigAooooAKKKKACiiigAooooAKKKKACiiigAooooAKKKKACiiigAooooAKKKKACiiigAooooAKKKKACiiigAooooAKKKKACiiigAooooAKKKKAPDP2kfiZafCT4MeKPG142wWllMsbeksilI/wDx8iv5O/2Vfjle/D39qLw/8SNRnITUNSka+OT863bszA/8DIr9lf8Agsd8U59B+G/hz4Y6ezJN4hn86Y8hDDGSVDdj86V/N/byNa3sdwVMb2z7969dytkEZ460Af3qQ3EclvFcQHckxBU+zVdUkjJr40/YY+LLfGH9mrwj4ruJXuL+3hTTrp5MZNzbKokbqe5r7IhkWWNZEbcp79KAJKKKKACiiigAooooAKKKKACiiigAooooAKKKKACiiigAooooAKKKKACiiigAooooAKKKKACiiigAooooAhJ5Y/7NfDXwFxJ+1n+0A/8AcutMH/khamvunpgetfC37PI839pr9oCUdRqenKT3/wCQfbUAfccXLnPYCrFQgfvGx2xU1ABRRRQAUUUUAFFFFABRRRQAUUUUAFFFFABRRRQB/9f9/KKKKACiiigAooooAKKKKACiiigAooooAKKKKACiiigAooooAKKKKACiiigAooooAKKKKACiiigAooooAKKKKACiiigAooooAKKKKACiiigAooooAKaTjgdadUJHDbj1PGO1ACNN5a/vByegHJNQi7BcqADt6gHLAn7ox7ivl79oX4yah4R1bw58K/BCrJ4z8ZzG3tDIcLBCqs8s7dOFRG2HIG/A56H2nwX4MtfCmgW2lRXc17cR/NNcynMkk7cyTN0+d2yT2yeBQB3wnBViFJ2cED1qkNUhNwtvwTkhyDwmBn5vQ0+QsyYCiWRSHVQQpx75r8SP2sPhT4T+C37S3hj4weNtLk8QeAfHdwLTU4rmaV47S8fMYYGJlCR42ct3zzQB+3Rv7cLlnUdf4hjj3pFvTIVSGPeSAdwPye+Gr5Jf9jP9lzxDosc+neDba1ju4BLbzW9xOW2SruV1PmEYwQc16n8EPhPpPwS8Bw+BtJuZJrOGV3jkdi7/AL3GBuOemKAPbopUmjWSNgyt0I6VJTUxsG3pSllBwSBQAtZz3ro4QquZM+X833sevpV4yRggFgC3Tnr9K5zWfD9jr8c9rfoXgljaJkOQHyMfNjnAzxjFAHGeP/hJ8MfjBHYj4h+GNM8SwWjMYhfW6XIXII+XeDjnNfBPwu/Zh/Z+1H9pv4u+FNU8A6PeaVoy6P8AY7Oezjkht/Pskkdo1IwuWOcAd6+kfh78Rb/wP8WLj9n7xzdm4u723bUNEu5SBLdWoJUo3QM6FHAAAOxQSO9Ynwj4/bD+NhGSDBoOT7/2fHxQB9OeAvhn4J+GOjf8I/4E0Wz0PTvNecW9nAsMQlk++wVePmwK7xRtGKWigAooooAKKKKACiiigAooooAKKKKACiiigAooooAKKKKACiiigAooooAKKKKACiiigAooooAKKKKACiiigCPlvm6bc18Mfs3Mf+Gi/wBoKbGc6xp6/wDlOtzX3G8qIj5YDGR+NfEP7Ma7/jp+0FORwdc0/B7HGmwUAfcCn95/vjP5VNVdCMxnP8NWKACiiigAooooAKKKKACiiigAooooAKKKKACiiigD/9D9/KKKKACiiigAooooAKKKKACiiigAooooAKKKKACiiigAooooAKKKKACiiigAooooAKKKKACiiigAooooAKKKKACiiigAooooAKKKKACiiigAooooAKic/MF6Zzz9KlqFjlgP4ucflQB+T2lX9z4y/wCCnOsaXqrGWDwfo8Ys1boolCOxH4yGv1fUbsqRtDZzX5lfEbw4PhR+3l4Q+KM0Zh0nxxavplxcEny1uY0d03n+EERhR7kV+kUV6VKpIMb22MOpVzzx6qcHmgC0Y/JjBfB8sgbs4O31JNfCf7RMWn/tM/af2ffCEC6jZzPE+rapj91p6RyB9kbcfvflBGARyMnGaP2zviN+0Bovh2Dwn8BvAepeKLrWEzPeWYAjWLoyB8hlYg9QOK+VPh5+0R+2Z4C8P2vh/wANfspSxxEMZZvt0hlnlAOWmbyss59yeMCgD9WfA3h/Rfh14Q0fwVa3DyWuk28VjbTXDkyXHlIB7nJ289vTisbxV8U9O8P6/ZeDre3l1XxBfRGUWNoY98SJjLEyEAdeMmvjD4EeM/2qPjb8WrbV/jZ8PZfhx4Z8NxNdWlq8hkMt4MRjMpVW27Xc7eR09K9P8LeG/Fngr47/ABL8c6vosusza1bWR028jjDQW0MYm/d7zyp+YbiBzgZ6UAfQ/wALPi1o3xU0zUdQ0O1ls7nR75tPvrWcqZIZ0VWZSUJU4VweCa73W7/+ydKu9QjhlvBBG8xWPbuIjBJUbiBnivjnwBHqX7Mnhfw7pWpaTPruqeN9Zkk1m7sh5iRXVyUjRyWKnYBtB47Hivs6cgxyW8uUh24YlRt+Y44PrzjFAHgWgftD6P4m8C6N490/RrxodV1VtIW0Pl+dHKpYFm+bA2lCDg19LqdyhsYyM4r4t/Z0+E/i/wAN2/iCy8Z2621haeKdY1DS4ySzPFc3TyQvkgbcIeMZ619gpNcFFDsELHk4ztP933oA/LT9vTV5/An7Q3wF+IGlf8hBtTOmnHXyZxIrf+hmvoT4Sbk/bE+NUZ6PBobt9fsEeP0rxz9o3wxP8bv2ufhX4Gso/MtfCcT6xqEoPELK0qxo2OjEhTj0Ir2b4SsJf2v/AI2Sg4VY9BQ+pYafH/hQB9r0UUUAFFFFABRRRQAUUUUAFFFFABRRRQAUUUUAFFFFABRRRQAUUUUAFFFFABRRRQAUUUUAFFFFABRRRQAUUUUAfnb+1n+3jo/7KnjDT/DviPwlf6xa6jarNHc2phERkZmXafMdSSMA8DvX5r/CH/gqR4F+G/jr4k+KNR8KandQeNNTtr6GOAwfulhto7dlbe45JQn5civsj/grp8I38YfAaw8cWVv5t14QvRKWX73k3DJGwOOoUZPPSv5yPhJ4KvPiV8S/DPgjT0Msuq3scO3nO3O5/p8gNAH9nfwG+LMPxq+HGm/ESz0m40a21Vi8MF2B5nlNyp+Ukcj3r26uI8B+FLXwP4T0HwbpqbbPRLKK0QZzxCqopJ7kgda7egAooooAKKKKACiiigAooooAKKKKACiiigAooooA/9H9/KKKKACiiigAooooAKKKKACiiigAooooAKKKKACiiigAooooAKKKKACiiigAooooAKKKKACiiigAooooAKKKKACiiigAooooAKKKKACiiigAooooAKg2uZAxHAJ/Iip6KAPPfiF8PdF+InhafwzrkAnikZXVuA6SI4dHVuxVgD+GKf4C0PxNoOhjTPE14uoXkLsousYMsQOI9wyfmC9Tmu/ooAqeTICxY7wDlR0x7VAyYbdLkNncOeF7EDj05rSqld7gQ6jdsBIUcE5470ARMYZmEBkweCp6Mfoal+yAyNIflZmBLJ8pIXop9RX4+fta+KP22fFXx2vvh7+yvevp0fh6zglljgmtI2kFxGkjM/2vOdrNgbcV87f8If8A8FqP+g1ef+BWk/4UAfv3faBZajJBc3sMc1xbkMjuudpByCozwatwWssU+4AbAMEnlmJ5zn09q/n5/wCEP/4LUf8AQavP/ArSf8KP+EP/AOC1H/QavP8AwK0n/CgD+gqGGVXZsbA5JYE7vpjpis/W7fVn0a5t9DKx3rKyQu5yEYjhz0zj0r8Bf+EP/wCC1H/QavP/AAK0n/Cj/hD/APgtR/0Grz/wK0n/AAoA/bH4bfCPSfh02o62zNf+JNekE+pX7D5pXGFAUdQoVVGMnpmvDPhBHIP2vPjaZcD5dDO0HnJsE2nH061+XreC/wDgtJIwzrV2WH/T3pPA+mK5bTfgt/wV00jxLqXi/Srq7g13VwgvboXmlEziEBIwe3yqAOlAH9I1Ffzzf8If/wAFqP8AoNXn/gVpP+FH/CH/APBaj/oNXn/gVpP+FAH9DNFfzzf8If8A8FqP+g1ef+BWk/4Uf8If/wAFqP8AoNXn/gVpP+FAH9DNRvLHGwV22lume9fz1f8ACH/8FqP+g1ef+BWk/wCFA8I/8FnAT9s1y8VQOCLvRwQTwOo9aAP6FvMUY3Hbk4Ge5p9fn/8AsKePPjTreh+KPAfx61BNU8V+Eby3juLkAM7G7jabYzR/uyY/u5X0r9AKACiiigAqHz0+Yrltq7uBnI9qmrlrfXvD+pXN1pNjfW89zYttnhjmQywf76g5H4igDpkkSTO05I6juO/NPrD0LXdG12GafRb+3v44XMbtbyLJsdeCr7ScN7GtygAooooAQkKMmoftMJyFbcwGdo5P5VBqN1b2Vq93eTrbW8Q3SSuyoqL6sW4Arzb/AIXN8Gw2T440EsvBJ1O1Ug+4MgoA9R8+MLuc7Af73FSKwYZXpXl8Xxl+D87rBF430Jy3Cqup2rsSfQCQ16JYTx3MAuIJRPDJyjqysrKe6leMUAXqKKKACmuwRSxyQPSnVBO+xQwGTngUAO8+Pscn0HXilMqqpY9AcVzNnrmjXGsXej2uoQy3tiBJPCjAuiy8qSOvODXS7Q4IPrmgBzSKql24VRkk+lRxXEcyLJFlkcAgjoQwyDmvy9/a88W/tWeMviU3wm/Zo1hNB1DRdH/txivlLPeE3AtjArT5iACtv5GeOtfFx8If8Fl0Ea22tXkjyqHV/tOlDauOUIxjuO1AH9DVFfzzf8If/wAFqP8AoNXn/gVpP+FH/CH/APBaj/oNXn/gVpP+FAH9DNFfzzf8If8A8FqP+g1ef+BWk/4Uf8If/wAFqP8AoNXn/gVpP+FAH7h/FrwPafE/4Y+JPBF7CZF1uxuYolfjErRsEznphsGvwA/4Je/s+Nf/ALSvinxX4gtcQeAJbi1tmA3AXqt5WD6Dy2JzXcDwb/wWejZZjq135oYkk3mk4KgcjpXGeEPgR/wVq8Bz6vc+CzLpEmuTm8vHiutKPnTHguSc9vSgD+kK2jKt5jElnC5J9VGOnvV6v55R4P8A+C0RcH+27wjZ8p+1aTjP5Uv/AAh//Baj/oNXn/gVpP8AhQB/QzRX883/AAh//Baj/oNXn/gVpP8AhR/wh/8AwWo/6DV5/wCBWk/4UAf0M1E8yRgFu/bvX89f/CH/APBaj/oNXn/gVpP+FQXvhr/gsNpNtd32q+IL23srFDNM/wBp0oqsCDdI3QtwoJoA/oahnjnBMZ+6cEdxU1eAfsw+M/EPj74K+HfEniuQTatNE0dxIAP3jwuYyxI4O7bnjivf6ACiiigAooooAKKKKACiiigD/9L9/KKKKACiiigAooooAKKKKACiiigAooooAKKKKACiiigAooooAKKKKACiiigAooooAKKKKACiiigAooooAKKKKACiiigAooooAKKKKACiiigAooooAKKKKACiiigAqGYDGe4x/Opqhm+7+X86APiPwOAf25fiASORolpj/vi3r7ir4e8D/wDJ8nxA/wCwJaf+gQV9w0AFFFFABRRRQAm0Z3Y56ZoAA4AxTWbHbNMWb5xEwwxGfb86AJqKKKACiiigAqJ4opTiRFfp1APQ5FS0negD4a/ZU4+Lvx4A4H9t2H6wSV9zV8M/sqf8le+PH/Yb0/8A9ESV9zUAc5q+r2mh291qWr3MdpbwKXaV22pHEoyWbOBnr0zXjnh39pP4K+Lr6fT/AA94tt9Rkso5JJ2VZIlWOLJdsuiqQMfwEn2xXxX+2HqXij45/tB+C/2R/D9xLa6JeIur67JGD+8tomZvJ3AjAbyiO/Wsn9vDQ/BHgj4ffD/4P+DLOPTdZ1bUobLSUhAhe3i8p45ZWI5OVDAnjJbHegD9JPBHxG8JfFLwuPGPw91ZNY0e53+XdQhhHIYxyoEgUj64r4u+AXw58QeCvhV8TvizrEM0/izxib/UoYmZmkEKRfuIhnodwbgetfX3wj+HOl/Cf4b+Hvh9o5Bg0O2htnfZtMrRoFZwueDIRnOa9R+xKsYSHEezPl8cLn2oA+Yf2OfhJd/CP4OWlhrLO+taxNLqF8XJLCW4dnUZP91Co/CvqiWRIY2lkOFUZJpyKVQKxyQOT6mvHP2hfGt98Ovgr4v8a6YN11pVi0kYC7jlmVOB3+9QBkeOf2h/hF8Pr5NM8VeJrayuyfljxPMS3v5CSY+hqn4N/aZ+Cvj7WYvDvhjxOuoX833Y1trqMk/WSJV/Wvkn9n/xx4T+HHgHTru1+FvjO71q6g8++1WPQGka7mcZaaOTzMkZ5Ar628I/H238Va1a6LJ8P/GGkGcnbdanozW1tHx1eQyHGeg468UAe0a7plprui3+kanbfaLa6iaGSNv4kbg8fqK/Fv4K+Cvh/wDs4ftZeIP2eviJ4V0rWPDHjBv7S0C/v7GG5KBmJFuJJkZ2YBwCMnpX7KeJvFejeEtCvPEPiK5SwtLVCzyyHYODgDPqTwB3r4x074eXP7TPxP8ADvxu8e6YdP8ADPgx2m8O2zfu7qWZyrG4nGPlQ7AQvOc9eKAPZvGv7K3wL8ZaT/Zsfg/StLlaZLhLiysYLeVShBwHjVTg46Zr6C0LTLPRdHs9JsF2W9pEsSD2QYrnNW8ceGPDkN//AGnqMECaPZm+vFLjfBagNiQj+6djAHjpXznrH7UsuieENJ+JEfhst4Q1TUI7UXUk5SYQzSeRHKsWwht0pAxu+6d2e1AH2KelMyaqfbdsZkljKpjII5GD6+lZOueIbPw7p82qaq6Q29vGZXJbnYgy5HrgUAaD30K3LWgnVp1w/l5+YIx25I+teM/tA3vjrT/BKXvw+8Uaf4Wv4LlWebUwpt54wDuiYlHZc9cqM8V8peH/ABZ4usP2zdEvvEFxLDpXj7Q5DaWMhIW3e2eZwPcsqBug4NfaPxG+FPgv4s6ZZ+HvH+kx6vY2s4ukjmQPGsq5AbnIJAJFAH5lJ8TPEMHj3xv4s8JXmn6L4p16z0qzXVb55xosdwqTCSS3xG7uGYgr5sSrgV+pnw8k1x/Bmltr+qQ63fvEDNdwALFIT1KYC8enAr59g/ZvGs+N/Gw8aNFfeCfEVnZWMGl+UFjgislkRNpyRyH54HSvpXwt4S0bwhoFl4W0KI2+n2CKsSA9ADxmgD5O0ciT9u/UwWDongkFARyp/tBB+fvX2sOJUA4yDXxRooK/t6awDyf+EIH/AKcEr7Y/5ap/un+lAE1FFRu5VSwHT14FAElFZ0mowoyfOmw9SW6fSrXnEDlefQcnFAEpRWGGAP1HrS7VxtwMdPwqMyHaWUZwf0pUfeWwOB0PrQA8AAAAYApaKKACiiigArgPiiqn4aeLsjOdHvwfp9nkrv64L4of8k08W/8AYHv/AP0nkoA8U/YtJP7OXhb2+1D/AMmJK+qK+V/2Lf8Ak3Lwv9bv/wBKJK+qKACiiigAooooAKKKKACiiigD/9P9/KKKKACiiigAooooAKKKKACiiigAooooAKKKKACiiigAooooAKKKKACiiigAooooAKKKKACiiigAooooAKKKKACiiigAooooAKKKKACiiigAooooAKKKKACiiigAqGb7v5fzqaoZvu/l/OgaPiTwP/yfJ8QP+wJaf+gQV9w18PeB/wDk+T4gf9gS0/8AQIK+4aBBRRRQAUgIPSlpgYEfL0oAq3bJGjSswUEbSScDBP8AOvij4VftbaX8Tf2pvFPwJ0ERyad4Z08y/aAwYvPE8cciZB6qzEEdiK9L/aP8Y6vpWh2PgjwWom8T+MJVsLUBuYoic3MxHbZDvZT/AHgK/NO38KaL+z//AMFJvCGlaXiO28X6Tb2BlOV8+4hgi82U44LSOhZs9SSaAP3EJA68UtRKRny25461IoIAB60ALRRRQAUnelqvK4VwHB2gZz2z/OgD4g/ZUIPxe+PODnGt6f8A+iJK+5tyg4JGa/KfwJ+0J8MfgJ8QvjtrPxM1VbaObWLFoY4be4ZnIgk+UssZUH6kCvmz4sf8Fl7EG40v4Q+E8GMFRdasThveMQsT9NwoA+9fjF8HfiZoP7RmkftHfDPTrbxMbfTn0++024uI7SQJ+8KyJPKyoFUyZIIJ4PNeb63+zh8QPj3B4j+L3jW5spfFE9mLXw9Y2syva2Bt7iOXJkDsrSF4ijMGAwx4r8E/ir+3D+0j8X7uVtc8VXNrp4yVtLIrAkcbcFN6BXYHn7xPWv2J/YX/AG3/ANnD4Yfs1eF/B3xQ+IEVh4gtGvWnjniuppAJrmSRcuImB+Vh/FQB+k/wPsPi3ZfDq2l+N/lTeL55mnuxasGigVzlY4yGbcIvujBOa96HIBr4b/4eQfsW/wDRTbX/AMBbv/4zR/w8g/Yt/wCim2v/AIC3f/xmgZ9y1heJ9BsPE/h7UPD+qQLcWt/C0UkbdCGHf6Hmvjf/AIeQfsW/9FNtf/AW7/8AjNH/AA8g/Yt/6Kba/wDgLd//ABmgCj4C8OftLfA3RU8C6L4eg+Ivh2xQpYzx3sOmXkSnjZIblmDAADkKK9q8E+O/jfrfiK007xd8KZPDmlSBjJfvrlleGNgDjMUIDtuIA46ZzXkf/DyD9i3/AKKba/8AgLd//GaP+HkH7Fv/AEU21/8AAW7/APjNAHgf7Rnh79vLxr8RrVvhz4I0Sbwho05lt7HUb6JkuHGQJpdsyE5yWC8Y4B6UweJ/+CroUQJ4C8IQRKvybLqPgjuQLroPTrXv/wDw8g/Yt/6Kba/+At3/APGaP+HkH7Fv/RTbX/wFu/8A4zQB5V4X+An7Rfjz4FePLb4z3CW3xG8TeZAPs00bQm1RcxWwcFlCFmfnP8XWvbL74I+IfH6fD/RPGenLo+h+CxbXM1skyTfbbqCDyVX5OAqth+R1Gc1kf8PIP2Lf+im2v/gLd/8Axmmt/wAFHv2LXIH/AAs61Ujn/j1u/wD4zQI9us/GfjU/GK68BXPh6OHw8bI3ltfpKsh81SgkSRVOQSXO0cZArC+LXhrxr41vvD/hHRdF87wjezb9WmFwkD+SCuYzG/zkMMggc15LH/wUY/Yk89ryP4i2YncbWb7Ld5x/35q3/wAPIP2Lf+im2v8A4C3f/wAZoAwPif8AADxJo/xr+GPjz4N+EIUh8O3Fyt/OLxI2NvNbtFgLKxPG7tX3hCly8aSGMRmQDzFY5YH6jg46cCvi7/h5B+xb/wBFNtf/AAFu/wD4zR/w8g/Yt/6Kba/+At3/APGaBn26vyDbGpwnGD3pynDbj0IH86+IP+HkH7F3/RTbX/wFu/8A4zUMn/BRz9i5lEjfEu2G1vu/Zbv/AOM0CL2jEH9vXWCOf+KIH/pelfa//LVP90/0r81PgZ8a/hn8cf21dd8R/DDXYte0+18GiGSSKOSMJIb9GCkSIhPHPFfpX/y1T/dP9KAJqrOVQsXzz+P6VZqtIGAZ8ZORj6UAfnz+3h+0L8W/2bPCWieMfAJ0u7OpalFYi1u4Xct5qMQcLIh6r1ql4t+J/wC1h8OPgr/wu7xZF4fvbPT7IajqulW1ncQXAi273VZZJ2UEcg/Ka+T/APgot4x0/wAZ/tOfCn4P38rtpFpL9t1BYkeTYyHfGWWMM2Np7Cvoj9p3416r8YfhXrHwW+A/hrUfEWpeKYXsGuVt3trWOOQbW3faxE3cdBQB9m/s+/GzQfj/APDPRfiRoK+RDqEZ8yInmNh1Br3CEhYst8oyev1r5e/Zd+DkX7PHwQ0P4f3l3Gbm1QvdyH7vmEZcZ9h0r6D0/WdHvJpbGzvre4usBzHHLvO3sSM8cYoA6QEEZHINGQeQartuUq54UKeKzr26isIfPuJNkNsheRugwBn+lAGxuXjkfN096UEHkHNfDPwF/aF8V/Ev49/EDwFrdutlpWjwpeaYrAB3hYrET+L7q+34gwK7R8hXJPuaALFcF8UP+SaeLf8AsD3/AP6TyV3tcF8UP+SaeLf+wPf/APpPJQB4p+xb/wAm5eF/rd/+lElfVFfK/wCxb/ybl4X+t3/6USV9UUAFFFFABRRRQAUUUUAFFFFAH//U/fyiiigAooooAKKKKACiiigAooooAKKKKACiiigAooooAKKKKACiiigAooooAKKKKACiiigAooooAKKKKACiiigAooooAKKKKACiiigAooooAKKKKACiiigAooooAKhm+7+X86mqGb7v5fzoGj4k8D/8nyfED/sCWn/oEFfcNfD3gf8A5Pk+IH/YEtP/AECCvuGgQUUUUAFcl4h8S6f4Y0u61vWbmO202ySR7mVztESxjcee/Fdaa4bxn4C8L/EPQ5PD3jbSYtX064yslvP8yFW4OfXIoA+FPht4A0z9rDXr348eLNT1Gx0kSSWnhgaVfzWTiwQlHldoSp3tN5ozyduBnHFfGn7aXgLQ/wBn39ob4MePdA1bUbw207+c+qahNqDrl9g2mdiV4POOtfth4D+Gvgr4XaInhr4f6JbaJpMZOy1tV8uJc9TjnkmuI8c/s2fBH4m6hHqfxB8FaZr13btmGW5h3NHznjn1oA9is7mG8giuLCVZ4GClHBzlDWhFIJYw46Gub0DwnonhfTxpugWUVhAigKkA2AY7DrXTKCFANADqKKKACozGrPuIycYqSk70Afnh+z/4N8MeNfiX8e9K8W6Vba5anWrAeTexrPHg28nGHBGK5v4tf8EsP2bfiUbrUdItJ/CmpzgnfZMfIUn0hBRMV6b+ysA3xd+PIPIOt6f/AOiJK+4HiJGFJHsDigD+Yv4u/wDBIz41+CvPvfhjfQeLdPjO8K4MNwwXkfu1DA/TdX6i/sMfss/Dy0/Zx8N6f8YvhtpM3iyF70XR1LToJbj/AI+pNuWdSSAuAPav0m+zSq+6Iheu7PLNx2Pan2ls1uoTJIGfvHc2Sc9eKAPFf+GXf2bv+iX+G/8AwVWv/wAbo/4Zd/Zu/wCiX+G//BVa/wDxuvd6KAPCP+GXf2bv+iX+G/8AwVWv/wAbo/4Zd/Zu/wCiX+G//BVa/wDxuvd6KAPCP+GXf2bv+iX+G/8AwVWv/wAbo/4Zd/Zu/wCiX+G//BVa/wDxuvd6KAPCP+GXf2bv+iX+G/8AwVWv/wAbo/4Zd/Zu/wCiX+G//BVa/wDxuvd6KAPCP+GXf2bv+iX+G/8AwVWv/wAbpD+y5+zcf+aYeG//AAVWv/xuveKKAPCP+GXf2bx/zTDw3/4KrX/43R/wy7+zd/0S/wAN/wDgqtf/AI3Xu9FAHhH/AAy7+zd/0S/w3/4KrX/43R/wy7+zd/0S/wAN/wDgqtf/AI3Xu9FAHhH/AAy7+zd/0S/w3/4KrX/43USfsv8A7OO8/wDFsfDhzg86Xbdf+/de+VCv3/wFAH5+/DfwH4J+H37cut6T4G0Ky0Czk8FiR4rG3jt0Z/t8fzMsYAJxxmv0C/5ap/un+lfFOj/8n7az/wBiQP8A0vjr7W/5ap/un+lAE1Zt9eRWUMtzdOIoIFZ3YkBQoGTk9q0q5nxB4V0fxPp11o2t2sd7p18MXEEoysnGMH24oA/Gv9k6e0+PX7efxM+M2oPHeadoMZ0y0ZiABNbskSbU6EbEOT3r9rfJLMztlCuQDnPBrxXwN+zN8Cfhnq0uvfD/AME6d4f1CfIkmtIvLdwTkhjk5yea9yAfBbHPYZ4oA+Ifj14h1nxF8Zvh98DtOupNN0vW3ubzUbiL5PMSxj89YtwIxv2YPPIODWLoGmJqn7WN1r3g5V03wp4J0E2uo3EY2wXF60iygPjhnWFs554WvsDxN8O/C3jKWyuPFWlW2pvpjSNbeamdnmLtbBzxkVPB4J0ey0BvD1laRR2TJKhhC4UiUMCD7YbFAFjQfFGj+LtLi1PwvfxapZyglZ4TujYjtntmvD/i1rV54w1zS/gx4b1Mabq2sg3d9MiLM1nbw84ZCR/rvmVfQiu9+EHwk0X4Q+EP+ET0CCOG2FxPcKsQ2BfOfcFHJ4XOK1oPhT4Fs/Gt38RbXQbRfEd4ipLfbP38iISUUtnsWP50AfB0NjdfCr9uXwpp2o6rFqreLfDbWfmG3js8NbSzS4CxlgxITqcGv0uikP2rZ/sk4Jwfbjp+NeY618Efhf4g8XWHj/XvDFnqfiPTT/o99MuZ4Qc5w34mvT7W1ktzhpPMUbsbuSMnIGfQdKALtcF8UP8Akmni3/sD3/8A6TyV3tcF8UP+SaeLf+wPf/8ApPJQB4p+xb/ybl4X+t3/AOlElfVFfK/7Fv8Aybl4X+t3/wClElfVFABRRRQAUUUUAFFFFABRRRQB/9X9/KKKKACiiigAooooAKKKKACiiigAooooAKKKKACiiigAooooAKKKKACiiigAooooAKKKKACiiigAooooAKKKKACiiigAooooAKKKKACiiigAooooAKKKKACiiigAqGb7v5fzqaoZDg/UUAfEngf/AJPk+IH/AGBLT/0CCvuGvhzwTIf+G3fH6AsoGj2WSVXB/dQcZ619wZHrQA+imZHrRketAx9FMyPWjI9aAH0UzI9aMj1oAfRTMj1oyPWgB9FMyPWjI9aAH0nem5HrVeUtncMYXpkkcnjn2oEfEn7Kn/JXvjx/2G9P/wDRElfc1fC/7LJk/wCFzfHYOhUrrGnjjG0hrdzmvuigAooooAKKKKACiiigAooooAKKKKACiiigAooooAKKKKACoV+/+Aqaol7H6UAfFGj/APJ+2s/9iQP/AEvjr7W/5ap/un+lfFGmhR+3lqr5UMPBQ6kgn/T06Doa+zbeWaUbpVaIgkYcKCR7YzQBoUUzI9aMj1oGPopmR60ZHrQA+imZHrRketAD6KZketGR60APopmR60ZHrQA+uC+KH/JNPFv/AGB7/wD9J5K7rI9a8++JY3/DbxUGbZ5mk3+7HOP9HccZoEeN/sW/8m5eF/rd/wDpRJX1RXyt+xcMfs7+GlG/arXQG8AH/j4k9K+qaACiiigAooooAKKKKACiiigD/9b9/KKKKACiiigAooooAKKKKACiiigAooooAKKKKACiiigAooooAKKKKACiiigAooooAKKKKACiiigAooooAKKKKACiiigAooooAKKKKACiiigAooooAKKKKACiiigAqN49+ecEjGe9SUUAfnZ8bv2J/iX8R/i/qPxY+Hfxm1LwBPqVtBbSQ2cDOQIY0TIkWaPrsz0rzn/hg/8Aaq/6Oz8T/wDfuX/5Kr9WaKAPym/4YP8A2qv+js/E/wD37l/+SqP+GD/2qv8Ao7PxP/37l/8Akqv1ZooHc/Kb/hg/9qr/AKOz8T/9+5f/AJKo/wCGD/2qv+js/E//AH7l/wDkqv1ZooC5+U3/AAwf+1V/0dn4n/79y/8AyVR/wwf+1V/0dn4n/wC/cv8A8lV+rNFAXPym/wCGD/2qv+js/E//AH7l/wDkqj/hg/8Aaq/6Oz8T/wDfuX/5Kr9WaKAuflN/wwf+1V/0dn4n/wC/cv8A8lUf8MH/ALVX/R2fif8A79y//JVfqzRQFz8pv+GD/wBqr/o7PxP/AN+5f/kqpI/2EP2pFIMn7V/iaTBPDRykdPT7VX6q0UCPln9mH9nXWvgDpuvjxN4xn8bax4iuYri4v7mIxSExKygHLyE8HrmvqaiigAooooAKKKKACiiigAooooAKKKKACiiigAooooAKKKKACmBcY56U+igD4c+PH7Jfjb4pfEWf4keAvibd+AtRn0oaYWs7cvIFE4m3B1ljPbGMV4Wf2Dv2pOCP2rvEpYDGWilJB9R/pXFfqvRQB+U3/DB/7VX/AEdn4n/79y//ACVR/wAMH/tVf9HZ+J/+/cv/AMlV+rNFA7n5Tf8ADB/7VX/R2fif/v3L/wDJVH/DB/7VX/R2fif/AL9y/wDyVX6s0UBc/Kb/AIYP/aq/6Oz8T/8AfuX/AOSqP+GD/wBqr/o7PxP/AN+5f/kqv1ZooC5+U3/DB/7VX/R2fif/AL9y/wDyVR/wwf8AtVf9HZ+J/wDv3L/8lV+rNFAXPym/4YP/AGqv+js/E/8A37l/+SqP+GD/ANqr/o7PxP8A9+5f/kqv1ZooC5+U3/DB/wC1V/0dn4n/AO/cv/yVTbn9gb9pm+tZbHUf2p/EV5bXCPHLFNBI6PHIu1lIN13BNfq3RQI8v+Dfw2j+Enw60jwDHfNqX9lxlDcMuwysxLMxXJxkn1r1CiigAooooAKKKKACiiigAooooA//1/38ooooAKKKKACiiigAooooAKKKKACiiigAooooAKKKKACiiigAooooAKKKKACiiigAooooAKKKKACiiigAooooAKKKKACiiigAooooAKKKKACiiigAooooAKKKKACiiigAooooAKKKKACiiigAooooAKKKKACiiigAooooAKKKKACiiigAooooAKKKKACiiigAooooAKKKKACiiigAooooAKKKKACiiigAooooAKKKKACiiigAooooAKKKKACiiigAooooAKKKKACiiigAooooAKKKKAP/2Q==;strokeColor=#FFFFFF;" vertex="1" parent="WIyWlLk6GJQsqaUBKTNV-1">
          <mxGeometry x="120" y="151" width="520" height="319" as="geometry" />
        </mxCell>
        <mxCell id="vF7-Rn5coSUuFvJn1IR7-1" value="&lt;div&gt;$$&lt;/div&gt;&lt;div&gt;&lt;br&gt;&lt;/div&gt;&lt;div&gt;$$&lt;/div&gt;" style="text;html=1;resizable=0;autosize=1;align=center;verticalAlign=middle;points=[];fillColor=#FFFFFF;strokeColor=none;rounded=0;fontSize=16;" vertex="1" parent="WIyWlLk6GJQsqaUBKTNV-1">
          <mxGeometry x="690" y="550" width="40" height="70" as="geometry" />
        </mxCell>
        <mxCell id="vF7-Rn5coSUuFvJn1IR7-9" style="edgeStyle=orthogonalEdgeStyle;rounded=0;orthogonalLoop=1;jettySize=auto;html=1;entryX=0;entryY=0.5;entryDx=0;entryDy=0;fontSize=16;" edge="1" parent="WIyWlLk6GJQsqaUBKTNV-1" source="vF7-Rn5coSUuFvJn1IR7-4" target="vF7-Rn5coSUuFvJn1IR7-5">
          <mxGeometry relative="1" as="geometry" />
        </mxCell>
        <mxCell id="vF7-Rn5coSUuFvJn1IR7-4" value="$$G$$" style="rounded=0;whiteSpace=wrap;html=1;fontSize=16;" vertex="1" parent="WIyWlLk6GJQsqaUBKTNV-1">
          <mxGeometry x="120" y="540" width="120" height="60" as="geometry" />
        </mxCell>
        <mxCell id="vF7-Rn5coSUuFvJn1IR7-5" value="$$P_o$$" style="rounded=0;whiteSpace=wrap;html=1;strokeColor=#000000;fontSize=16;fillColor=#FFFFFF;" vertex="1" parent="WIyWlLk6GJQsqaUBKTNV-1">
          <mxGeometry x="510" y="540" width="120" height="60" as="geometry" />
        </mxCell>
        <mxCell id="vF7-Rn5coSUuFvJn1IR7-11" value="$$P_{o,a}$$" style="rounded=0;whiteSpace=wrap;html=1;fontSize=16;" vertex="1" parent="WIyWlLk6GJQsqaUBKTNV-1">
          <mxGeometry x="510" y="740" width="120" height="60" as="geometry" />
        </mxCell>
        <mxCell id="vF7-Rn5coSUuFvJn1IR7-12" value="$$A$$" style="rounded=0;whiteSpace=wrap;html=1;fontSize=16;" vertex="1" parent="WIyWlLk6GJQsqaUBKTNV-1">
          <mxGeometry x="320" y="740" width="120" height="60" as="geometry" />
        </mxCell>
        <mxCell id="vF7-Rn5coSUuFvJn1IR7-13" value="$$S$$" style="rounded=0;whiteSpace=wrap;html=1;fontSize=16;" vertex="1" parent="WIyWlLk6GJQsqaUBKTNV-1">
          <mxGeometry x="190" y="650" width="120" height="60" as="geometry" />
        </mxCell>
        <mxCell id="vF7-Rn5coSUuFvJn1IR7-14" value="" style="ellipse;whiteSpace=wrap;html=1;aspect=fixed;strokeColor=#000000;fontSize=16;fillColor=#FFFFFF;" vertex="1" parent="WIyWlLk6GJQsqaUBKTNV-1">
          <mxGeometry x="360" y="620" width="80" height="80" as="geometry" />
        </mxCell>
      </root>
    </mxGraphModel>
  </diagram>
</mxfile>
